<svg width="505" height="28" viewBox="0 0 505 28" fill="none" xmlns="http://www.w3.org/2000/svg">
<path d="M20.7414 18.2812C20.5891 20.0742 19.9973 21.668 18.966 23.0625C17.9465 24.457 16.5988 25.5293 14.923 26.2793C13.259 27.0293 11.4543 27.3867 9.50899 27.3516C6.83711 27.293 4.7336 26.4316 3.19844 24.7676C1.66328 23.1035 0.825394 20.8477 0.684769 18C0.5793 16.1016 0.784378 14.0332 1.3 11.7949C1.82735 9.55664 2.67696 7.61133 3.84883 5.95898C5.03242 4.29492 6.4211 3.05273 8.01485 2.23242C9.62032 1.40039 11.3723 1.00195 13.2707 1.03711C16.0598 1.08398 18.2629 1.92188 19.8801 3.55078C21.509 5.17969 22.3938 7.42383 22.5344 10.2832L16.5402 10.2656C16.5637 8.70703 16.2824 7.59375 15.6965 6.92578C15.1105 6.25781 14.1848 5.90039 12.9191 5.85352C9.75508 5.74805 7.82735 8.20898 7.13594 13.2363C6.81953 15.5098 6.66133 17.1328 6.66133 18.1055C6.60274 20.9883 7.66914 22.4707 9.86055 22.5527C11.2785 22.5996 12.4094 22.2539 13.2531 21.5156C14.0969 20.7656 14.6359 19.7109 14.8703 18.3516L20.7414 18.2812ZM47.6219 7.62891C49.3211 7.65234 50.7918 8.08008 52.034 8.91211C53.2762 9.73242 54.1844 10.8809 54.7586 12.3574C55.3445 13.834 55.5555 15.4746 55.3914 17.2793L55.3563 17.666C55.0281 20.584 53.9441 22.9395 52.1043 24.7324C50.2645 26.5254 47.991 27.3984 45.284 27.3516C43.5965 27.3281 42.1375 26.9121 40.907 26.1035C39.6766 25.2832 38.7625 24.1406 38.1648 22.6758C37.5789 21.2109 37.368 19.582 37.532 17.7891C37.825 14.6719 38.8914 12.1875 40.7313 10.3359C42.5828 8.48438 44.8797 7.58203 47.6219 7.62891ZM43.3152 17.7891L43.2625 18.8262C43.0984 21.4395 43.8953 22.7695 45.6531 22.8164C47.9266 22.8867 49.2449 21.041 49.6082 17.2793L49.6785 15.6797C49.702 14.625 49.5027 13.7871 49.0809 13.166C48.6707 12.5332 48.0613 12.2051 47.2527 12.1816C46.1863 12.1465 45.3074 12.5859 44.616 13.5C43.9363 14.4023 43.5027 15.832 43.3152 17.7891ZM79.3012 7.96289L78.8969 10.248C80.4203 8.44336 82.2543 7.56445 84.3988 7.61133C86.1566 7.64648 87.4633 8.30273 88.3188 9.58008C89.1859 10.8457 89.5023 12.6621 89.268 15.0293L87.2641 27H81.4633L83.4848 14.9941C83.5316 14.584 83.5434 14.209 83.5199 13.8691C83.4379 12.7559 82.7816 12.1992 81.5512 12.1992C80.5316 12.1758 79.6 12.627 78.7563 13.5527L76.3832 27H70.6L73.9047 7.98047L79.3012 7.96289ZM113.564 7.96289L113.16 10.248C114.684 8.44336 116.518 7.56445 118.662 7.61133C120.42 7.64648 121.727 8.30273 122.582 9.58008C123.449 10.8457 123.766 12.6621 123.531 15.0293L121.527 27H115.727L117.748 14.9941C117.795 14.584 117.807 14.209 117.783 13.8691C117.701 12.7559 117.045 12.1992 115.814 12.1992C114.795 12.1758 113.863 12.627 113.02 13.5527L110.646 27H104.863L108.168 7.98047L113.564 7.96289ZM148.707 27.3516C147.007 27.3398 145.49 26.9414 144.154 26.1562C142.83 25.3594 141.828 24.2578 141.148 22.8516C140.468 21.4336 140.199 19.875 140.339 18.1758L140.392 17.6836C140.709 14.5547 141.793 12.082 143.644 10.2656C145.507 8.4375 147.787 7.55859 150.482 7.62891C152.111 7.65234 153.505 8.06836 154.666 8.87695C155.826 9.67383 156.675 10.7812 157.214 12.1992C157.754 13.6055 157.929 15.1875 157.742 16.9453L157.408 19.3535H146.088C146.111 20.3496 146.392 21.1582 146.931 21.7793C147.47 22.4004 148.255 22.7285 149.287 22.7637C150.963 22.8105 152.468 22.166 153.804 20.8301L156.23 24.0469C155.515 25.0664 154.513 25.8691 153.224 26.4551C151.947 27.0293 150.546 27.3281 149.023 27.3516H148.707ZM150.113 12.1816C149.293 12.1582 148.578 12.416 147.968 12.9551C147.371 13.4941 146.849 14.3965 146.404 15.6621H152.187L152.293 15.1523C152.363 14.7422 152.375 14.3555 152.328 13.9922C152.129 12.8203 151.39 12.2168 150.113 12.1816ZM181.652 22.7988C182.484 22.8223 183.134 22.5938 183.603 22.1133C184.071 21.6211 184.37 20.9883 184.499 20.2148L189.913 20.1973C189.843 21.5918 189.427 22.8398 188.665 23.9414C187.915 25.043 186.896 25.8984 185.607 26.5078C184.329 27.1055 182.958 27.3867 181.493 27.3516C178.962 27.3047 177.011 26.3965 175.64 24.627C174.269 22.8457 173.712 20.5488 173.97 17.7363L174.023 17.3145C174.234 15.3926 174.773 13.6934 175.64 12.2168C176.507 10.7285 177.644 9.58008 179.05 8.77148C180.468 7.96289 182.05 7.58203 183.796 7.62891C186.011 7.67578 187.757 8.38477 189.034 9.75586C190.323 11.1152 190.945 12.9551 190.898 15.2754L185.484 15.2578C185.542 13.2422 184.821 12.2168 183.321 12.1816C181.282 12.1113 180.111 13.8281 179.806 17.332L179.648 19.125L179.63 19.793C179.63 21.7617 180.304 22.7637 181.652 22.7988ZM216.407 3.25195L215.581 7.98047H218.622L217.901 12.0938H214.86L213.384 20.8301C213.302 21.4277 213.337 21.8789 213.489 22.1836C213.653 22.4883 214.052 22.6523 214.684 22.6758C214.93 22.6875 215.434 22.6582 216.196 22.5879L215.774 26.877C214.802 27.1934 213.764 27.3398 212.663 27.3164C210.87 27.293 209.528 26.7656 208.638 25.7344C207.747 24.7031 207.384 23.3027 207.548 21.5332L209.095 12.0938H206.739L207.442 7.98047H209.798L210.624 3.25195H216.407ZM272.646 19.1777L276.461 7.98047H282.121L274.475 27H269.605L268.516 15.7852L263.506 27H258.602L257.547 7.98047H262.979L262.803 19.3008L267.672 7.98047H271.697L272.646 19.1777ZM301.443 27H295.642L298.947 7.98047H304.748L301.443 27ZM299.457 3.18164C299.433 2.32617 299.732 1.61133 300.353 1.03711C300.986 0.462891 301.748 0.175781 302.638 0.175781C303.541 0.175781 304.291 0.433594 304.888 0.949219C305.498 1.46484 305.814 2.13867 305.838 2.9707C305.861 3.83789 305.562 4.55859 304.941 5.13281C304.32 5.69531 303.558 5.97656 302.656 5.97656C301.777 5.97656 301.027 5.72461 300.406 5.2207C299.797 4.70508 299.48 4.02539 299.457 3.18164ZM330.362 3.25195L329.536 7.98047H332.577L331.857 12.0938H328.816L327.339 20.8301C327.257 21.4277 327.292 21.8789 327.445 22.1836C327.609 22.4883 328.007 22.6523 328.64 22.6758C328.886 22.6875 329.39 22.6582 330.152 22.5879L329.73 26.877C328.757 27.1934 327.72 27.3398 326.618 27.3164C324.825 27.293 323.484 26.7656 322.593 25.7344C321.702 24.7031 321.339 23.3027 321.503 21.5332L323.05 12.0938H320.695L321.398 7.98047H323.753L324.579 3.25195H330.362ZM354.448 10.0547C355.866 8.40234 357.501 7.58789 359.352 7.61133C361.263 7.6582 362.675 8.35547 363.589 9.70312C364.514 11.0508 364.848 12.8789 364.591 15.1875L362.622 27H356.839L358.825 15.1172C358.872 14.7188 358.884 14.3438 358.86 13.9922C358.778 12.832 358.134 12.2344 356.927 12.1992C355.884 12.1758 354.958 12.5566 354.149 13.3418L351.723 27H345.94L350.634 0H356.417L354.448 10.0547ZM415.434 24.9258C414.016 26.6016 412.305 27.416 410.301 27.3691C408.438 27.3457 407.031 26.6953 406.082 25.418C405.145 24.1406 404.781 22.4297 404.992 20.2852L407.049 7.98047H412.832L410.74 20.3555C410.705 20.6953 410.705 21.0059 410.74 21.2871C410.822 22.248 411.391 22.7461 412.445 22.7812C413.664 22.8281 414.701 22.3477 415.557 21.3398L417.912 7.98047H423.73L420.426 27H415.047L415.434 24.9258ZM448.66 21.5508C448.812 20.7773 448.214 20.1973 446.867 19.8105L445.619 19.4941C443.58 18.9551 442.086 18.1992 441.136 17.2266C440.187 16.2539 439.742 15.0996 439.8 13.7637C439.859 11.9355 440.668 10.4531 442.226 9.31641C443.797 8.16797 445.707 7.60547 447.957 7.62891C450.195 7.65234 452.005 8.2207 453.388 9.33398C454.783 10.4473 455.492 11.9473 455.515 13.834L449.75 13.8164C449.797 12.3164 449.134 11.5664 447.763 11.5664C447.177 11.5664 446.632 11.7422 446.129 12.0938C445.625 12.4336 445.326 12.8906 445.232 13.4648C445.033 14.4141 445.871 15.0645 447.746 15.416C449.375 15.8027 450.634 16.2539 451.525 16.7695C452.416 17.2734 453.095 17.9004 453.564 18.6504C454.033 19.4004 454.25 20.3027 454.214 21.3574C454.179 22.5059 453.804 23.5312 453.089 24.4336C452.375 25.3359 451.338 26.0566 449.978 26.5957C448.63 27.1348 447.166 27.3867 445.584 27.3516C444.213 27.3398 442.935 27.0527 441.752 26.4902C440.58 25.9277 439.66 25.166 438.992 24.2051C438.336 23.2324 437.996 22.1191 437.972 20.8652L443.351 20.9004C443.375 22.5879 444.218 23.4199 445.882 23.3965C446.597 23.3965 447.207 23.2383 447.711 22.9219C448.214 22.5938 448.531 22.1367 448.66 21.5508ZM500.874 18.8965H496.18L498.483 1.40625H504.636L500.874 18.8965ZM494.335 24.4512C494.311 23.5957 494.61 22.8691 495.231 22.2715C495.852 21.6621 496.62 21.3574 497.534 21.3574C498.436 21.3574 499.186 21.6328 499.784 22.1836C500.382 22.7344 500.692 23.4199 500.716 24.2402C500.739 25.1191 500.44 25.8574 499.819 26.4551C499.198 27.041 498.43 27.334 497.516 27.334C496.638 27.334 495.893 27.0645 495.284 26.5254C494.675 25.9746 494.358 25.2832 494.335 24.4512Z" fill="#4399D1"/>
</svg>
