<svg width="502" height="183" viewBox="0 0 502 183" fill="none" xmlns="http://www.w3.org/2000/svg">
<path d="M12.4837 15.8979C12.4837 15.2212 12.242 14.6938 11.7586 14.3159C11.284 13.938 10.4446 13.5469 9.24052 13.1426C8.03642 12.7383 7.05205 12.3472 6.2874 11.9692C3.80009 10.7476 2.55644 9.06885 2.55644 6.93311C2.55644 5.86963 2.86406 4.93359 3.47929 4.125C4.10332 3.30762 4.98222 2.6748 6.11601 2.22656C7.2498 1.76953 8.52422 1.54102 9.93925 1.54102C11.3191 1.54102 12.554 1.78711 13.6438 2.2793C14.7425 2.77148 15.595 3.47461 16.2015 4.38867C16.8079 5.29395 17.1111 6.33105 17.1111 7.5H12.4969C12.4969 6.71777 12.2552 6.11133 11.7718 5.68066C11.2972 5.25 10.6512 5.03467 9.83379 5.03467C9.00761 5.03467 8.35283 5.21924 7.86943 5.58838C7.39482 5.94873 7.15752 6.41016 7.15752 6.97266C7.15752 7.46484 7.42119 7.91309 7.94853 8.31738C8.47588 8.71289 9.40312 9.12598 10.7303 9.55664C12.0574 9.97852 13.1473 10.4355 13.9998 10.9277C16.074 12.123 17.1111 13.771 17.1111 15.8716C17.1111 17.5503 16.4783 18.8687 15.2127 19.8267C13.9471 20.7847 12.2112 21.2637 10.0052 21.2637C8.44951 21.2637 7.03886 20.9868 5.77324 20.4331C4.5164 19.8706 3.56718 19.106 2.92558 18.1392C2.29277 17.1636 1.97636 16.043 1.97636 14.7773H6.61699C6.61699 15.8057 6.88066 16.5659 7.408 17.0581C7.94414 17.5415 8.80986 17.7832 10.0052 17.7832C10.7698 17.7832 11.3719 17.6206 11.8113 17.2954C12.2596 16.9614 12.4837 16.4956 12.4837 15.8979ZM30.4767 19.4575C29.5362 20.6616 28.2662 21.2637 26.6666 21.2637C25.1021 21.2637 23.9156 20.811 23.107 19.9058C22.3072 18.9917 21.9073 17.6821 21.9073 15.9771V6.73535H26.3502V16.0034C26.3502 17.2251 26.9435 17.8359 28.13 17.8359C29.1495 17.8359 29.8746 17.4712 30.3053 16.7417V6.73535H34.7745V21H30.6085L30.4767 19.4575ZM53.163 13.9731C53.163 16.188 52.662 17.959 51.6601 19.2861C50.6669 20.6045 49.3222 21.2637 47.6259 21.2637C46.3163 21.2637 45.2396 20.7847 44.3959 19.8267V26.4844H39.953V6.73535H44.1059L44.2377 8.05371C45.0902 6.99902 46.2108 6.47168 47.5995 6.47168C49.3573 6.47168 50.724 7.12207 51.6996 8.42285C52.6752 9.71484 53.163 11.4946 53.163 13.7622V13.9731ZM48.7201 13.6963C48.7201 11.165 47.9818 9.89941 46.5053 9.89941C45.4506 9.89941 44.7475 10.2773 44.3959 11.0332V16.6494C44.7826 17.4404 45.4945 17.8359 46.5316 17.8359C47.9467 17.8359 48.6762 16.6143 48.7201 14.1709V13.6963ZM71.0769 13.9731C71.0769 16.188 70.5759 17.959 69.5739 19.2861C68.5808 20.6045 67.236 21.2637 65.5397 21.2637C64.2302 21.2637 63.1535 20.7847 62.3098 19.8267V26.4844H57.8669V6.73535H62.0197L62.1516 8.05371C63.0041 6.99902 64.1247 6.47168 65.5134 6.47168C67.2712 6.47168 68.6379 7.12207 69.6135 8.42285C70.5891 9.71484 71.0769 11.4946 71.0769 13.7622V13.9731ZM66.634 13.6963C66.634 11.165 65.8957 9.89941 64.4191 9.89941C63.3644 9.89941 62.6613 10.2773 62.3098 11.0332V16.6494C62.6965 17.4404 63.4084 17.8359 64.4455 17.8359C65.8605 17.8359 66.59 16.6143 66.634 14.1709V13.6963ZM75.1875 13.7358C75.1875 12.312 75.4644 11.0464 76.0181 9.93896C76.5718 8.82275 77.3672 7.96582 78.4043 7.36816C79.4414 6.77051 80.6587 6.47168 82.0562 6.47168C84.1919 6.47168 85.875 7.13525 87.1055 8.4624C88.3359 9.78076 88.9512 11.5781 88.9512 13.8545V14.0127C88.9512 16.2363 88.3315 18.0029 87.0923 19.3125C85.8618 20.6133 84.1919 21.2637 82.0825 21.2637C80.0522 21.2637 78.4219 20.6572 77.1914 19.4443C75.9609 18.2227 75.2974 16.5703 75.2007 14.4873L75.1875 13.7358ZM79.6304 14.0127C79.6304 15.3311 79.8369 16.2979 80.25 16.9131C80.6631 17.5283 81.2739 17.8359 82.0825 17.8359C83.6646 17.8359 84.4731 16.6187 84.5083 14.1841V13.7358C84.5083 11.1782 83.6909 9.89941 82.0562 9.89941C80.5708 9.89941 79.7666 11.0024 79.6436 13.2085L79.6304 14.0127ZM102.238 10.7563L100.774 10.6509C99.3768 10.6509 98.4803 11.0903 98.0848 11.9692V21H93.6419V6.73535H97.8079L97.9529 8.56787C98.7 7.17041 99.7415 6.47168 101.077 6.47168C101.552 6.47168 101.965 6.52441 102.317 6.62988L102.238 10.7563ZM112.373 3.18896V6.73535H114.72V9.82031H112.373V16.3462C112.373 16.8823 112.47 17.2559 112.663 17.4668C112.857 17.6777 113.239 17.7832 113.81 17.7832C114.25 17.7832 114.619 17.7568 114.918 17.7041V20.8813C114.118 21.1362 113.283 21.2637 112.413 21.2637C110.883 21.2637 109.754 20.9033 109.025 20.1826C108.295 19.4619 107.93 18.3677 107.93 16.8999V9.82031H106.111V6.73535H107.93V3.18896H112.373ZM126.081 21.2637C123.893 21.2637 122.122 20.6133 120.768 19.3125C119.415 18.0029 118.738 16.3022 118.738 14.2104V13.8413C118.738 12.3823 119.006 11.0947 119.542 9.97852C120.087 8.8623 120.878 8.00098 121.915 7.39453C122.953 6.7793 124.183 6.47168 125.607 6.47168C127.611 6.47168 129.193 7.0957 130.353 8.34375C131.513 9.58301 132.093 11.3145 132.093 13.5381V15.2651H123.26C123.418 16.0649 123.766 16.6934 124.302 17.1504C124.838 17.6074 125.532 17.8359 126.385 17.8359C127.791 17.8359 128.89 17.3438 129.681 16.3594L131.711 18.7588C131.157 19.5234 130.371 20.1343 129.351 20.5913C128.34 21.0396 127.25 21.2637 126.081 21.2637ZM125.58 9.89941C124.28 9.89941 123.506 10.7607 123.26 12.4834H127.743V12.1406C127.76 11.4287 127.58 10.8794 127.202 10.4927C126.824 10.0972 126.284 9.89941 125.58 9.89941ZM136.032 13.7622C136.032 11.5034 136.52 9.72363 137.496 8.42285C138.471 7.12207 139.834 6.47168 141.583 6.47168C142.857 6.47168 143.929 6.97266 144.8 7.97461V0.75H149.256V21H145.261L145.037 19.4707C144.123 20.666 142.963 21.2637 141.556 21.2637C139.86 21.2637 138.515 20.6133 137.522 19.3125C136.529 18.0117 136.032 16.1616 136.032 13.7622ZM140.475 14.0391C140.475 16.5703 141.214 17.8359 142.69 17.8359C143.675 17.8359 144.378 17.4229 144.8 16.5967V11.165C144.395 10.3213 143.701 9.89941 142.717 9.89941C141.345 9.89941 140.603 11.0068 140.488 13.2217L140.475 14.0391ZM174.009 15.8979C174.009 15.2212 173.767 14.6938 173.284 14.3159C172.809 13.938 171.97 13.5469 170.766 13.1426C169.562 12.7383 168.577 12.3472 167.813 11.9692C165.325 10.7476 164.082 9.06885 164.082 6.93311C164.082 5.86963 164.389 4.93359 165.005 4.125C165.629 3.30762 166.508 2.6748 167.641 2.22656C168.775 1.76953 170.05 1.54102 171.465 1.54102C172.845 1.54102 174.079 1.78711 175.169 2.2793C176.268 2.77148 177.12 3.47461 177.727 4.38867C178.333 5.29395 178.637 6.33105 178.637 7.5H174.022C174.022 6.71777 173.781 6.11133 173.297 5.68066C172.823 5.25 172.177 5.03467 171.359 5.03467C170.533 5.03467 169.878 5.21924 169.395 5.58838C168.92 5.94873 168.683 6.41016 168.683 6.97266C168.683 7.46484 168.947 7.91309 169.474 8.31738C170.001 8.71289 170.929 9.12598 172.256 9.55664C173.583 9.97852 174.673 10.4355 175.525 10.9277C177.599 12.123 178.637 13.771 178.637 15.8716C178.637 17.5503 178.004 18.8687 176.738 19.8267C175.472 20.7847 173.737 21.2637 171.531 21.2637C169.975 21.2637 168.564 20.9868 167.299 20.4331C166.042 19.8706 165.093 19.106 164.451 18.1392C163.818 17.1636 163.502 16.043 163.502 14.7773H168.142C168.142 15.8057 168.406 16.5659 168.933 17.0581C169.47 17.5415 170.335 17.7832 171.531 17.7832C172.295 17.7832 172.897 17.6206 173.337 17.2954C173.785 16.9614 174.009 16.4956 174.009 15.8979ZM182.945 13.7358C182.945 12.312 183.222 11.0464 183.775 9.93896C184.329 8.82275 185.125 7.96582 186.162 7.36816C187.199 6.77051 188.416 6.47168 189.814 6.47168C191.949 6.47168 193.632 7.13525 194.863 8.4624C196.093 9.78076 196.709 11.5781 196.709 13.8545V14.0127C196.709 16.2363 196.089 18.0029 194.85 19.3125C193.619 20.6133 191.949 21.2637 189.84 21.2637C187.81 21.2637 186.179 20.6572 184.949 19.4443C183.718 18.2227 183.055 16.5703 182.958 14.4873L182.945 13.7358ZM187.388 14.0127C187.388 15.3311 187.594 16.2979 188.007 16.9131C188.421 17.5283 189.031 17.8359 189.84 17.8359C191.422 17.8359 192.231 16.6187 192.266 14.1841V13.7358C192.266 11.1782 191.448 9.89941 189.814 9.89941C188.328 9.89941 187.524 11.0024 187.401 13.2085L187.388 14.0127ZM202.349 21V9.82031H200.279V6.73535H202.349V5.60156C202.349 3.97559 202.828 2.71436 203.786 1.81787C204.744 0.921387 206.088 0.473145 207.82 0.473145C208.453 0.473145 209.147 0.56543 209.903 0.75L209.916 4.01953C209.643 3.94043 209.279 3.90088 208.822 3.90088C207.477 3.90088 206.805 4.48096 206.805 5.64111V6.73535H209.586V9.82031H206.805V21H202.349ZM219.023 3.18896V6.73535H221.37V9.82031H219.023V16.3462C219.023 16.8823 219.12 17.2559 219.313 17.4668C219.507 17.6777 219.889 17.7832 220.46 17.7832C220.9 17.7832 221.269 17.7568 221.568 17.7041V20.8813C220.768 21.1362 219.933 21.2637 219.063 21.2637C217.533 21.2637 216.404 20.9033 215.675 20.1826C214.945 19.4619 214.58 18.3677 214.58 16.8999V9.82031H212.761V6.73535H214.58V3.18896H219.023ZM238.15 15.1465L239.587 6.73535H243.845L240.483 21H236.726L234.366 12.5361L231.993 21H228.236L224.874 6.73535H229.132L230.543 15.3442L232.811 6.73535H235.909L238.15 15.1465ZM256.182 21C256.024 20.71 255.884 20.2837 255.761 19.7212C254.943 20.7495 253.801 21.2637 252.333 21.2637C250.988 21.2637 249.846 20.8594 248.905 20.0508C247.965 19.2334 247.494 18.2095 247.494 16.979C247.494 15.4321 248.066 14.2632 249.208 13.4722C250.351 12.6812 252.012 12.2856 254.192 12.2856H255.563V11.5342C255.563 10.2246 254.996 9.56982 253.862 9.56982C252.807 9.56982 252.28 10.0884 252.28 11.1255H247.837C247.837 9.74561 248.422 8.625 249.591 7.76367C250.768 6.90234 252.267 6.47168 254.086 6.47168C255.906 6.47168 257.343 6.91553 258.397 7.80322C259.452 8.69092 259.992 9.9082 260.019 11.4551V17.77C260.036 19.0796 260.239 20.0815 260.625 20.7759V21H256.182ZM253.401 18.0996C253.954 18.0996 254.411 17.981 254.772 17.7437C255.141 17.5063 255.405 17.2383 255.563 16.9395V14.6587H254.271C252.724 14.6587 251.95 15.353 251.95 16.7417C251.95 17.146 252.087 17.4756 252.359 17.7305C252.632 17.9766 252.979 18.0996 253.401 18.0996ZM273.819 10.7563L272.356 10.6509C270.959 10.6509 270.062 11.0903 269.667 11.9692V21H265.224V6.73535H269.39L269.535 8.56787C270.282 7.17041 271.323 6.47168 272.659 6.47168C273.134 6.47168 273.547 6.52441 273.899 6.62988L273.819 10.7563ZM284.759 21.2637C282.571 21.2637 280.8 20.6133 279.446 19.3125C278.093 18.0029 277.416 16.3022 277.416 14.2104V13.8413C277.416 12.3823 277.684 11.0947 278.22 9.97852C278.765 8.8623 279.556 8.00098 280.593 7.39453C281.63 6.7793 282.861 6.47168 284.285 6.47168C286.288 6.47168 287.87 7.0957 289.031 8.34375C290.191 9.58301 290.771 11.3145 290.771 13.5381V15.2651H281.938C282.096 16.0649 282.443 16.6934 282.979 17.1504C283.516 17.6074 284.21 17.8359 285.062 17.8359C286.469 17.8359 287.567 17.3438 288.358 16.3594L290.389 18.7588C289.835 19.5234 289.048 20.1343 288.029 20.5913C287.018 21.0396 285.928 21.2637 284.759 21.2637ZM284.258 9.89941C282.957 9.89941 282.184 10.7607 281.938 12.4834H286.42V12.1406C286.438 11.4287 286.258 10.8794 285.88 10.4927C285.502 10.0972 284.961 9.89941 284.258 9.89941ZM302.739 16.9922C302.739 16.6143 302.541 16.311 302.146 16.0825C301.75 15.854 300.999 15.6167 299.891 15.3706C298.784 15.1245 297.87 14.8037 297.149 14.4082C296.428 14.0039 295.879 13.5161 295.501 12.9448C295.123 12.3735 294.934 11.7188 294.934 10.9805C294.934 9.6709 295.475 8.59424 296.556 7.75049C297.637 6.89795 299.052 6.47168 300.801 6.47168C302.682 6.47168 304.194 6.89795 305.336 7.75049C306.479 8.60303 307.05 9.72363 307.05 11.1123H302.594C302.594 9.96973 301.992 9.39844 300.788 9.39844C300.322 9.39844 299.931 9.53027 299.614 9.79395C299.298 10.0488 299.14 10.3696 299.14 10.7563C299.14 11.1519 299.333 11.4727 299.72 11.7188C300.107 11.9648 300.722 12.167 301.566 12.3252C302.418 12.4834 303.165 12.6724 303.807 12.8921C305.951 13.6304 307.024 14.9531 307.024 16.8604C307.024 18.1611 306.444 19.2202 305.283 20.0376C304.132 20.855 302.638 21.2637 300.801 21.2637C299.579 21.2637 298.489 21.0439 297.531 20.6045C296.573 20.165 295.826 19.5674 295.29 18.8115C294.754 18.0557 294.486 17.2603 294.486 16.4253H298.639C298.656 17.0845 298.876 17.5679 299.298 17.8755C299.72 18.1743 300.26 18.3237 300.92 18.3237C301.526 18.3237 301.979 18.2007 302.278 17.9546C302.585 17.7085 302.739 17.3877 302.739 16.9922Z" fill="#B8B7BC"/>
<path d="M250.344 61.1543C249.829 61.8249 249.117 62.3327 248.205 62.6777C247.294 63.0228 246.258 63.1953 245.1 63.1953C243.908 63.1953 242.854 62.9251 241.936 62.3848C241.018 61.8444 240.308 61.0729 239.807 60.0703C239.312 59.0612 239.055 57.8861 239.035 56.5449V55.4316C239.035 53.2832 239.549 51.6068 240.578 50.4023C241.607 49.1914 243.042 48.5859 244.885 48.5859C246.467 48.5859 247.723 48.9766 248.654 49.7578C249.585 50.5391 250.145 51.6654 250.334 53.1367H247.912C247.639 51.4245 246.646 50.5684 244.934 50.5684C243.827 50.5684 242.984 50.9688 242.404 51.7695C241.831 52.5638 241.535 53.7324 241.516 55.2754V56.3691C241.516 57.9056 241.838 59.1003 242.482 59.9531C243.133 60.7995 244.035 61.2227 245.188 61.2227C246.451 61.2227 247.349 60.9362 247.883 60.3633V57.5801H244.953V55.7051H250.344V61.1543ZM253.385 57.6191C253.385 56.584 253.59 55.653 254 54.8262C254.41 53.9928 254.986 53.3548 255.729 52.9121C256.471 52.4629 257.324 52.2383 258.287 52.2383C259.713 52.2383 260.868 52.6973 261.754 53.6152C262.646 54.5332 263.128 55.7507 263.199 57.2676L263.209 57.8242C263.209 58.8659 263.007 59.7969 262.604 60.6172C262.206 61.4375 261.633 62.0723 260.885 62.5215C260.143 62.9707 259.283 63.1953 258.307 63.1953C256.816 63.1953 255.621 62.7005 254.723 61.7109C253.831 60.7148 253.385 59.39 253.385 57.7363V57.6191ZM255.758 57.8242C255.758 58.9115 255.982 59.7643 256.432 60.3828C256.881 60.9948 257.506 61.3008 258.307 61.3008C259.107 61.3008 259.729 60.9883 260.172 60.3633C260.621 59.7383 260.846 58.8236 260.846 57.6191C260.846 56.5514 260.615 55.7051 260.152 55.0801C259.697 54.4551 259.075 54.1426 258.287 54.1426C257.512 54.1426 256.897 54.4518 256.441 55.0703C255.986 55.6823 255.758 56.6003 255.758 57.8242ZM265.771 57.6191C265.771 56.584 265.977 55.653 266.387 54.8262C266.797 53.9928 267.373 53.3548 268.115 52.9121C268.857 52.4629 269.71 52.2383 270.674 52.2383C272.1 52.2383 273.255 52.6973 274.141 53.6152C275.033 54.5332 275.514 55.7507 275.586 57.2676L275.596 57.8242C275.596 58.8659 275.394 59.7969 274.99 60.6172C274.593 61.4375 274.02 62.0723 273.271 62.5215C272.529 62.9707 271.67 63.1953 270.693 63.1953C269.202 63.1953 268.008 62.7005 267.109 61.7109C266.217 60.7148 265.771 59.39 265.771 57.7363V57.6191ZM268.145 57.8242C268.145 58.9115 268.369 59.7643 268.818 60.3828C269.268 60.9948 269.893 61.3008 270.693 61.3008C271.494 61.3008 272.116 60.9883 272.559 60.3633C273.008 59.7383 273.232 58.8236 273.232 57.6191C273.232 56.5514 273.001 55.7051 272.539 55.0801C272.083 54.4551 271.462 54.1426 270.674 54.1426C269.899 54.1426 269.284 54.4518 268.828 55.0703C268.372 55.6823 268.145 56.6003 268.145 57.8242ZM278.188 57.6387C278.188 55.998 278.572 54.6895 279.34 53.7129C280.115 52.7298 281.14 52.2383 282.416 52.2383C283.62 52.2383 284.568 52.6582 285.258 53.498L285.365 52.4336H287.504V62.6777C287.504 64.0645 287.071 65.1582 286.205 65.959C285.346 66.7598 284.184 67.1602 282.719 67.1602C281.944 67.1602 281.186 66.9974 280.443 66.6719C279.708 66.3529 279.148 65.9329 278.764 65.4121L279.887 63.9863C280.616 64.8522 281.514 65.2852 282.582 65.2852C283.37 65.2852 283.992 65.0703 284.447 64.6406C284.903 64.2174 285.131 63.5924 285.131 62.7656V62.0527C284.447 62.8145 283.536 63.1953 282.396 63.1953C281.16 63.1953 280.147 62.7038 279.359 61.7207C278.578 60.7376 278.188 59.377 278.188 57.6387ZM280.551 57.8438C280.551 58.9049 280.766 59.7415 281.195 60.3535C281.632 60.959 282.234 61.2617 283.002 61.2617C283.959 61.2617 284.669 60.8516 285.131 60.0312V55.3828C284.682 54.582 283.979 54.1816 283.021 54.1816C282.24 54.1816 281.632 54.4909 281.195 55.1094C280.766 55.7279 280.551 56.6393 280.551 57.8438ZM293.475 63H291.102V48H293.475V63ZM301.721 63.1953C300.217 63.1953 298.996 62.7233 298.059 61.7793C297.128 60.8288 296.662 59.5658 296.662 57.9902V57.6973C296.662 56.6426 296.864 55.7018 297.268 54.875C297.678 54.0417 298.251 53.3939 298.986 52.9316C299.722 52.4694 300.542 52.2383 301.447 52.2383C302.886 52.2383 303.996 52.6973 304.777 53.6152C305.565 54.5332 305.959 55.832 305.959 57.5117V58.4688H299.055C299.126 59.3411 299.416 60.0312 299.924 60.5391C300.438 61.0469 301.083 61.3008 301.857 61.3008C302.945 61.3008 303.83 60.8613 304.514 59.9824L305.793 61.2031C305.37 61.8346 304.803 62.3262 304.094 62.6777C303.391 63.0228 302.6 63.1953 301.721 63.1953ZM301.438 54.1426C300.786 54.1426 300.259 54.3704 299.855 54.8262C299.458 55.2819 299.204 55.9167 299.094 56.7305H303.615V56.5547C303.563 55.7604 303.352 55.1615 302.98 54.7578C302.609 54.3477 302.095 54.1426 301.438 54.1426ZM324.043 57.8242C324.043 59.4583 323.672 60.7637 322.93 61.7402C322.188 62.7103 321.191 63.1953 319.941 63.1953C318.783 63.1953 317.855 62.8145 317.158 62.0527V67.0625H314.785V52.4336H316.973L317.07 53.5078C317.767 52.6615 318.714 52.2383 319.912 52.2383C321.201 52.2383 322.21 52.7201 322.939 53.6836C323.675 54.6406 324.043 55.972 324.043 57.6777V57.8242ZM321.68 57.6191C321.68 56.5645 321.468 55.7279 321.045 55.1094C320.628 54.4909 320.029 54.1816 319.248 54.1816C318.278 54.1816 317.581 54.582 317.158 55.3828V60.0703C317.588 60.8906 318.291 61.3008 319.268 61.3008C320.023 61.3008 320.612 60.998 321.035 60.3926C321.465 59.7806 321.68 58.8561 321.68 57.6191ZM329.584 63H327.211V48H329.584V63ZM339.49 63C339.386 62.7982 339.295 62.4694 339.217 62.0137C338.462 62.8014 337.537 63.1953 336.443 63.1953C335.382 63.1953 334.516 62.8926 333.846 62.2871C333.175 61.6816 332.84 60.9329 332.84 60.041C332.84 58.9147 333.257 58.0521 334.09 57.4531C334.93 56.8477 336.128 56.5449 337.684 56.5449H339.139V55.8516C339.139 55.3047 338.986 54.8685 338.68 54.543C338.374 54.2109 337.908 54.0449 337.283 54.0449C336.743 54.0449 336.3 54.1816 335.955 54.4551C335.61 54.722 335.438 55.0638 335.438 55.4805H333.064C333.064 54.901 333.257 54.3607 333.641 53.8594C334.025 53.3516 334.546 52.9544 335.203 52.668C335.867 52.3815 336.606 52.2383 337.42 52.2383C338.657 52.2383 339.643 52.5508 340.379 53.1758C341.115 53.7943 341.492 54.6667 341.512 55.793V60.5586C341.512 61.5091 341.645 62.2676 341.912 62.834V63H339.49ZM336.883 61.291C337.352 61.291 337.791 61.1771 338.201 60.9492C338.618 60.7214 338.93 60.4154 339.139 60.0312V58.0391H337.859C336.98 58.0391 336.32 58.1921 335.877 58.498C335.434 58.804 335.213 59.237 335.213 59.7969C335.213 60.2526 335.363 60.6172 335.662 60.8906C335.968 61.1576 336.375 61.291 336.883 61.291ZM347.971 49.8652V52.4336H349.836V54.1914H347.971V60.0898C347.971 60.4935 348.049 60.7865 348.205 60.9688C348.368 61.1445 348.654 61.2324 349.064 61.2324C349.338 61.2324 349.615 61.1999 349.895 61.1348V62.9707C349.354 63.1204 348.833 63.1953 348.332 63.1953C346.509 63.1953 345.598 62.1895 345.598 60.1777V54.1914H343.859V52.4336H345.598V49.8652H347.971ZM353.492 63V54.1914H351.881V52.4336H353.492V51.4668C353.492 50.2949 353.818 49.39 354.469 48.752C355.12 48.1139 356.031 47.7949 357.203 47.7949C357.62 47.7949 358.062 47.8535 358.531 47.9707L358.473 49.8262C358.212 49.7741 357.91 49.748 357.564 49.748C356.432 49.748 355.865 50.3307 355.865 51.4961V52.4336H358.014V54.1914H355.865V63H353.492ZM360.303 57.6191C360.303 56.584 360.508 55.653 360.918 54.8262C361.328 53.9928 361.904 53.3548 362.646 52.9121C363.389 52.4629 364.242 52.2383 365.205 52.2383C366.631 52.2383 367.786 52.6973 368.672 53.6152C369.564 54.5332 370.046 55.7507 370.117 57.2676L370.127 57.8242C370.127 58.8659 369.925 59.7969 369.521 60.6172C369.124 61.4375 368.551 62.0723 367.803 62.5215C367.061 62.9707 366.201 63.1953 365.225 63.1953C363.734 63.1953 362.539 62.7005 361.641 61.7109C360.749 60.7148 360.303 59.39 360.303 57.7363V57.6191ZM362.676 57.8242C362.676 58.9115 362.9 59.7643 363.35 60.3828C363.799 60.9948 364.424 61.3008 365.225 61.3008C366.025 61.3008 366.647 60.9883 367.09 60.3633C367.539 59.7383 367.764 58.8236 367.764 57.6191C367.764 56.5514 367.533 55.7051 367.07 55.0801C366.615 54.4551 365.993 54.1426 365.205 54.1426C364.43 54.1426 363.815 54.4518 363.359 55.0703C362.904 55.6823 362.676 56.6003 362.676 57.8242ZM378.666 54.6016C378.354 54.5495 378.031 54.5234 377.699 54.5234C376.612 54.5234 375.88 54.9401 375.502 55.7734V63H373.129V52.4336H375.395L375.453 53.6152C376.026 52.6973 376.82 52.2383 377.836 52.2383C378.174 52.2383 378.454 52.2839 378.676 52.375L378.666 54.6016ZM383.396 52.4336L383.465 53.5371C384.207 52.6712 385.223 52.2383 386.512 52.2383C387.924 52.2383 388.891 52.7786 389.412 53.8594C390.18 52.7786 391.261 52.2383 392.654 52.2383C393.82 52.2383 394.686 52.5605 395.252 53.2051C395.825 53.8496 396.118 54.8001 396.131 56.0566V63H393.758V56.125C393.758 55.4544 393.611 54.9629 393.318 54.6504C393.025 54.3379 392.54 54.1816 391.863 54.1816C391.323 54.1816 390.88 54.3281 390.535 54.6211C390.197 54.9076 389.959 55.2852 389.822 55.7539L389.832 63H387.459V56.0469C387.426 54.8034 386.792 54.1816 385.555 54.1816C384.604 54.1816 383.93 54.569 383.533 55.3438V63H381.16V52.4336H383.396ZM405.49 60.1289C405.49 59.7057 405.314 59.3835 404.963 59.1621C404.618 58.9408 404.042 58.7454 403.234 58.5762C402.427 58.4069 401.753 58.1921 401.213 57.9316C400.028 57.3587 399.436 56.5286 399.436 55.4414C399.436 54.5299 399.82 53.7682 400.588 53.1562C401.356 52.5443 402.333 52.2383 403.518 52.2383C404.781 52.2383 405.799 52.5508 406.574 53.1758C407.355 53.8008 407.746 54.6113 407.746 55.6074H405.373C405.373 55.1517 405.204 54.7741 404.865 54.4746C404.527 54.1686 404.077 54.0156 403.518 54.0156C402.997 54.0156 402.57 54.1361 402.238 54.377C401.913 54.6178 401.75 54.9401 401.75 55.3438C401.75 55.7083 401.903 55.9915 402.209 56.1934C402.515 56.3952 403.133 56.6003 404.064 56.8086C404.995 57.0104 405.725 57.2546 406.252 57.541C406.786 57.821 407.18 58.1595 407.434 58.5566C407.694 58.9538 407.824 59.4355 407.824 60.002C407.824 60.9525 407.43 61.724 406.643 62.3164C405.855 62.9023 404.823 63.1953 403.547 63.1953C402.681 63.1953 401.91 63.0391 401.232 62.7266C400.555 62.4141 400.028 61.9844 399.65 61.4375C399.273 60.8906 399.084 60.3014 399.084 59.6699H401.389C401.421 60.2298 401.633 60.6628 402.023 60.9688C402.414 61.2682 402.932 61.418 403.576 61.418C404.201 61.418 404.676 61.3008 405.002 61.0664C405.327 60.8255 405.49 60.513 405.49 60.1289ZM247.404 82.6895H241.896L240.744 86H238.176L243.547 71.7812H245.764L251.145 86H248.566L247.404 82.6895ZM242.59 80.6973H246.711L244.65 74.7988L242.59 80.6973ZM259.82 84.9648C259.124 85.7852 258.134 86.1953 256.852 86.1953C255.706 86.1953 254.837 85.86 254.244 85.1895C253.658 84.5189 253.365 83.5488 253.365 82.2793V75.4336H255.738V82.25C255.738 83.5911 256.295 84.2617 257.408 84.2617C258.561 84.2617 259.339 83.8483 259.742 83.0215V75.4336H262.115V86H259.879L259.82 84.9648ZM265.088 80.6387C265.088 79.0111 265.465 77.7057 266.221 76.7227C266.976 75.7331 267.988 75.2383 269.258 75.2383C270.378 75.2383 271.283 75.6289 271.973 76.4102V71H274.346V86H272.197L272.08 84.9062C271.37 85.7656 270.423 86.1953 269.238 86.1953C268.001 86.1953 266.999 85.6973 266.23 84.7012C265.469 83.7051 265.088 82.3509 265.088 80.6387ZM267.461 80.8438C267.461 81.918 267.666 82.7578 268.076 83.3633C268.493 83.9622 269.082 84.2617 269.844 84.2617C270.814 84.2617 271.523 83.8288 271.973 82.9629V78.4512C271.536 77.6048 270.833 77.1816 269.863 77.1816C269.095 77.1816 268.503 77.4876 268.086 78.0996C267.669 78.7051 267.461 79.6198 267.461 80.8438ZM280.346 86H277.973V75.4336H280.346V86ZM277.826 72.6895C277.826 72.3249 277.94 72.0221 278.168 71.7812C278.402 71.5404 278.734 71.4199 279.164 71.4199C279.594 71.4199 279.926 71.5404 280.16 71.7812C280.395 72.0221 280.512 72.3249 280.512 72.6895C280.512 73.0475 280.395 73.347 280.16 73.5879C279.926 73.8223 279.594 73.9395 279.164 73.9395C278.734 73.9395 278.402 73.8223 278.168 73.5879C277.94 73.347 277.826 73.0475 277.826 72.6895ZM283.494 80.6191C283.494 79.584 283.699 78.653 284.109 77.8262C284.52 76.9928 285.096 76.3548 285.838 75.9121C286.58 75.4629 287.433 75.2383 288.396 75.2383C289.822 75.2383 290.978 75.6973 291.863 76.6152C292.755 77.5332 293.237 78.7507 293.309 80.2676L293.318 80.8242C293.318 81.8659 293.117 82.7969 292.713 83.6172C292.316 84.4375 291.743 85.0723 290.994 85.5215C290.252 85.9707 289.393 86.1953 288.416 86.1953C286.925 86.1953 285.73 85.7005 284.832 84.7109C283.94 83.7148 283.494 82.39 283.494 80.7363V80.6191ZM285.867 80.8242C285.867 81.9115 286.092 82.7643 286.541 83.3828C286.99 83.9948 287.615 84.3008 288.416 84.3008C289.217 84.3008 289.839 83.9883 290.281 83.3633C290.73 82.7383 290.955 81.8236 290.955 80.6191C290.955 79.5514 290.724 78.7051 290.262 78.0801C289.806 77.4551 289.184 77.1426 288.396 77.1426C287.622 77.1426 287.007 77.4518 286.551 78.0703C286.095 78.6823 285.867 79.6003 285.867 80.8242ZM306.959 86.1953C305.455 86.1953 304.234 85.7233 303.297 84.7793C302.366 83.8288 301.9 82.5658 301.9 80.9902V80.6973C301.9 79.6426 302.102 78.7018 302.506 77.875C302.916 77.0417 303.489 76.3939 304.225 75.9316C304.96 75.4694 305.781 75.2383 306.686 75.2383C308.124 75.2383 309.234 75.6973 310.016 76.6152C310.803 77.5332 311.197 78.832 311.197 80.5117V81.4688H304.293C304.365 82.3411 304.654 83.0312 305.162 83.5391C305.676 84.0469 306.321 84.3008 307.096 84.3008C308.183 84.3008 309.068 83.8613 309.752 82.9824L311.031 84.2031C310.608 84.8346 310.042 85.3262 309.332 85.6777C308.629 86.0228 307.838 86.1953 306.959 86.1953ZM306.676 77.1426C306.025 77.1426 305.497 77.3704 305.094 77.8262C304.697 78.2819 304.443 78.9167 304.332 79.7305H308.854V79.5547C308.801 78.7604 308.59 78.1615 308.219 77.7578C307.848 77.3477 307.333 77.1426 306.676 77.1426ZM313.604 80.6387C313.604 79.0111 313.981 77.7057 314.736 76.7227C315.492 75.7331 316.504 75.2383 317.773 75.2383C318.893 75.2383 319.798 75.6289 320.488 76.4102V71H322.861V86H320.713L320.596 84.9062C319.886 85.7656 318.939 86.1953 317.754 86.1953C316.517 86.1953 315.514 85.6973 314.746 84.7012C313.984 83.7051 313.604 82.3509 313.604 80.6387ZM315.977 80.8438C315.977 81.918 316.182 82.7578 316.592 83.3633C317.008 83.9622 317.598 84.2617 318.359 84.2617C319.329 84.2617 320.039 83.8288 320.488 82.9629V78.4512C320.052 77.6048 319.349 77.1816 318.379 77.1816C317.611 77.1816 317.018 77.4876 316.602 78.0996C316.185 78.7051 315.977 79.6198 315.977 80.8438ZM328.861 86H326.488V75.4336H328.861V86ZM326.342 72.6895C326.342 72.3249 326.456 72.0221 326.684 71.7812C326.918 71.5404 327.25 71.4199 327.68 71.4199C328.109 71.4199 328.441 71.5404 328.676 71.7812C328.91 72.0221 329.027 72.3249 329.027 72.6895C329.027 73.0475 328.91 73.347 328.676 73.5879C328.441 73.8223 328.109 73.9395 327.68 73.9395C327.25 73.9395 326.918 73.8223 326.684 73.5879C326.456 73.347 326.342 73.0475 326.342 72.6895ZM335.428 72.8652V75.4336H337.293V77.1914H335.428V83.0898C335.428 83.4935 335.506 83.7865 335.662 83.9688C335.825 84.1445 336.111 84.2324 336.521 84.2324C336.795 84.2324 337.072 84.1999 337.352 84.1348V85.9707C336.811 86.1204 336.29 86.1953 335.789 86.1953C333.966 86.1953 333.055 85.1895 333.055 83.1777V77.1914H331.316V75.4336H333.055V72.8652H335.428ZM339.377 80.6191C339.377 79.584 339.582 78.653 339.992 77.8262C340.402 76.9928 340.979 76.3548 341.721 75.9121C342.463 75.4629 343.316 75.2383 344.279 75.2383C345.705 75.2383 346.861 75.6973 347.746 76.6152C348.638 77.5332 349.12 78.7507 349.191 80.2676L349.201 80.8242C349.201 81.8659 348.999 82.7969 348.596 83.6172C348.199 84.4375 347.626 85.0723 346.877 85.5215C346.135 85.9707 345.275 86.1953 344.299 86.1953C342.808 86.1953 341.613 85.7005 340.715 84.7109C339.823 83.7148 339.377 82.39 339.377 80.7363V80.6191ZM341.75 80.8242C341.75 81.9115 341.975 82.7643 342.424 83.3828C342.873 83.9948 343.498 84.3008 344.299 84.3008C345.1 84.3008 345.721 83.9883 346.164 83.3633C346.613 82.7383 346.838 81.8236 346.838 80.6191C346.838 79.5514 346.607 78.7051 346.145 78.0801C345.689 77.4551 345.067 77.1426 344.279 77.1426C343.505 77.1426 342.889 77.4518 342.434 78.0703C341.978 78.6823 341.75 79.6003 341.75 80.8242ZM357.74 77.6016C357.428 77.5495 357.105 77.5234 356.773 77.5234C355.686 77.5234 354.954 77.9401 354.576 78.7734V86H352.203V75.4336H354.469L354.527 76.6152C355.1 75.6973 355.895 75.2383 356.91 75.2383C357.249 75.2383 357.529 75.2839 357.75 75.375L357.74 77.6016ZM244.455 105.904L248.068 94.7812H250.783L245.666 109H243.273L238.176 94.7812H240.881L244.455 105.904ZM255.689 109H253.316V98.4336H255.689V109ZM253.17 95.6895C253.17 95.3249 253.284 95.0221 253.512 94.7812C253.746 94.5404 254.078 94.4199 254.508 94.4199C254.938 94.4199 255.27 94.5404 255.504 94.7812C255.738 95.0221 255.855 95.3249 255.855 95.6895C255.855 96.0475 255.738 96.347 255.504 96.5879C255.27 96.8223 254.938 96.9395 254.508 96.9395C254.078 96.9395 253.746 96.8223 253.512 96.5879C253.284 96.347 253.17 96.0475 253.17 95.6895ZM258.838 103.639C258.838 102.011 259.215 100.706 259.971 99.7227C260.726 98.7331 261.738 98.2383 263.008 98.2383C264.128 98.2383 265.033 98.6289 265.723 99.4102V94H268.096V109H265.947L265.83 107.906C265.12 108.766 264.173 109.195 262.988 109.195C261.751 109.195 260.749 108.697 259.98 107.701C259.219 106.705 258.838 105.351 258.838 103.639ZM261.211 103.844C261.211 104.918 261.416 105.758 261.826 106.363C262.243 106.962 262.832 107.262 263.594 107.262C264.564 107.262 265.273 106.829 265.723 105.963V101.451C265.286 100.605 264.583 100.182 263.613 100.182C262.845 100.182 262.253 100.488 261.836 101.1C261.419 101.705 261.211 102.62 261.211 103.844ZM276.225 109.195C274.721 109.195 273.5 108.723 272.562 107.779C271.632 106.829 271.166 105.566 271.166 103.99V103.697C271.166 102.643 271.368 101.702 271.771 100.875C272.182 100.042 272.755 99.3939 273.49 98.9316C274.226 98.4694 275.046 98.2383 275.951 98.2383C277.39 98.2383 278.5 98.6973 279.281 99.6152C280.069 100.533 280.463 101.832 280.463 103.512V104.469H273.559C273.63 105.341 273.92 106.031 274.428 106.539C274.942 107.047 275.587 107.301 276.361 107.301C277.449 107.301 278.334 106.861 279.018 105.982L280.297 107.203C279.874 107.835 279.307 108.326 278.598 108.678C277.895 109.023 277.104 109.195 276.225 109.195ZM275.941 100.143C275.29 100.143 274.763 100.37 274.359 100.826C273.962 101.282 273.708 101.917 273.598 102.73H278.119V102.555C278.067 101.76 277.855 101.161 277.484 100.758C277.113 100.348 276.599 100.143 275.941 100.143ZM282.869 103.619C282.869 102.584 283.074 101.653 283.484 100.826C283.895 99.9928 284.471 99.3548 285.213 98.9121C285.955 98.4629 286.808 98.2383 287.771 98.2383C289.197 98.2383 290.353 98.6973 291.238 99.6152C292.13 100.533 292.612 101.751 292.684 103.268L292.693 103.824C292.693 104.866 292.492 105.797 292.088 106.617C291.691 107.438 291.118 108.072 290.369 108.521C289.627 108.971 288.768 109.195 287.791 109.195C286.3 109.195 285.105 108.701 284.207 107.711C283.315 106.715 282.869 105.39 282.869 103.736V103.619ZM285.242 103.824C285.242 104.911 285.467 105.764 285.916 106.383C286.365 106.995 286.99 107.301 287.791 107.301C288.592 107.301 289.214 106.988 289.656 106.363C290.105 105.738 290.33 104.824 290.33 103.619C290.33 102.551 290.099 101.705 289.637 101.08C289.181 100.455 288.559 100.143 287.771 100.143C286.997 100.143 286.382 100.452 285.926 101.07C285.47 101.682 285.242 102.6 285.242 103.824ZM306.334 109.195C304.83 109.195 303.609 108.723 302.672 107.779C301.741 106.829 301.275 105.566 301.275 103.99V103.697C301.275 102.643 301.477 101.702 301.881 100.875C302.291 100.042 302.864 99.3939 303.6 98.9316C304.335 98.4694 305.156 98.2383 306.061 98.2383C307.499 98.2383 308.609 98.6973 309.391 99.6152C310.178 100.533 310.572 101.832 310.572 103.512V104.469H303.668C303.74 105.341 304.029 106.031 304.537 106.539C305.051 107.047 305.696 107.301 306.471 107.301C307.558 107.301 308.443 106.861 309.127 105.982L310.406 107.203C309.983 107.835 309.417 108.326 308.707 108.678C308.004 109.023 307.213 109.195 306.334 109.195ZM306.051 100.143C305.4 100.143 304.872 100.37 304.469 100.826C304.072 101.282 303.818 101.917 303.707 102.73H308.229V102.555C308.176 101.76 307.965 101.161 307.594 100.758C307.223 100.348 306.708 100.143 306.051 100.143ZM312.979 103.639C312.979 102.011 313.356 100.706 314.111 99.7227C314.867 98.7331 315.879 98.2383 317.148 98.2383C318.268 98.2383 319.173 98.6289 319.863 99.4102V94H322.236V109H320.088L319.971 107.906C319.261 108.766 318.314 109.195 317.129 109.195C315.892 109.195 314.889 108.697 314.121 107.701C313.359 106.705 312.979 105.351 312.979 103.639ZM315.352 103.844C315.352 104.918 315.557 105.758 315.967 106.363C316.383 106.962 316.973 107.262 317.734 107.262C318.704 107.262 319.414 106.829 319.863 105.963V101.451C319.427 100.605 318.724 100.182 317.754 100.182C316.986 100.182 316.393 100.488 315.977 101.1C315.56 101.705 315.352 102.62 315.352 103.844ZM328.236 109H325.863V98.4336H328.236V109ZM325.717 95.6895C325.717 95.3249 325.831 95.0221 326.059 94.7812C326.293 94.5404 326.625 94.4199 327.055 94.4199C327.484 94.4199 327.816 94.5404 328.051 94.7812C328.285 95.0221 328.402 95.3249 328.402 95.6895C328.402 96.0475 328.285 96.347 328.051 96.5879C327.816 96.8223 327.484 96.9395 327.055 96.9395C326.625 96.9395 326.293 96.8223 326.059 96.5879C325.831 96.347 325.717 96.0475 325.717 95.6895ZM334.803 95.8652V98.4336H336.668V100.191H334.803V106.09C334.803 106.493 334.881 106.786 335.037 106.969C335.2 107.145 335.486 107.232 335.896 107.232C336.17 107.232 336.447 107.2 336.727 107.135V108.971C336.186 109.12 335.665 109.195 335.164 109.195C333.341 109.195 332.43 108.189 332.43 106.178V100.191H330.691V98.4336H332.43V95.8652H334.803ZM338.752 103.619C338.752 102.584 338.957 101.653 339.367 100.826C339.777 99.9928 340.354 99.3548 341.096 98.9121C341.838 98.4629 342.691 98.2383 343.654 98.2383C345.08 98.2383 346.236 98.6973 347.121 99.6152C348.013 100.533 348.495 101.751 348.566 103.268L348.576 103.824C348.576 104.866 348.374 105.797 347.971 106.617C347.574 107.438 347.001 108.072 346.252 108.521C345.51 108.971 344.65 109.195 343.674 109.195C342.183 109.195 340.988 108.701 340.09 107.711C339.198 106.715 338.752 105.39 338.752 103.736V103.619ZM341.125 103.824C341.125 104.911 341.35 105.764 341.799 106.383C342.248 106.995 342.873 107.301 343.674 107.301C344.475 107.301 345.096 106.988 345.539 106.363C345.988 105.738 346.213 104.824 346.213 103.619C346.213 102.551 345.982 101.705 345.52 101.08C345.064 100.455 344.442 100.143 343.654 100.143C342.88 100.143 342.264 100.452 341.809 101.07C341.353 101.682 341.125 102.6 341.125 103.824ZM357.115 100.602C356.803 100.549 356.48 100.523 356.148 100.523C355.061 100.523 354.329 100.94 353.951 101.773V109H351.578V98.4336H353.844L353.902 99.6152C354.475 98.6973 355.27 98.2383 356.285 98.2383C356.624 98.2383 356.904 98.2839 357.125 98.375L357.115 100.602ZM241.916 130.027H248.371V132H239.445V117.781H241.916V130.027ZM255.689 132.195C254.186 132.195 252.965 131.723 252.027 130.779C251.096 129.829 250.631 128.566 250.631 126.99V126.697C250.631 125.643 250.833 124.702 251.236 123.875C251.646 123.042 252.219 122.394 252.955 121.932C253.691 121.469 254.511 121.238 255.416 121.238C256.855 121.238 257.965 121.697 258.746 122.615C259.534 123.533 259.928 124.832 259.928 126.512V127.469H253.023C253.095 128.341 253.385 129.031 253.893 129.539C254.407 130.047 255.051 130.301 255.826 130.301C256.913 130.301 257.799 129.861 258.482 128.982L259.762 130.203C259.339 130.835 258.772 131.326 258.062 131.678C257.359 132.023 256.568 132.195 255.689 132.195ZM255.406 123.143C254.755 123.143 254.228 123.37 253.824 123.826C253.427 124.282 253.173 124.917 253.062 125.73H257.584V125.555C257.532 124.76 257.32 124.161 256.949 123.758C256.578 123.348 256.064 123.143 255.406 123.143ZM269.092 132C268.988 131.798 268.896 131.469 268.818 131.014C268.063 131.801 267.139 132.195 266.045 132.195C264.984 132.195 264.118 131.893 263.447 131.287C262.777 130.682 262.441 129.933 262.441 129.041C262.441 127.915 262.858 127.052 263.691 126.453C264.531 125.848 265.729 125.545 267.285 125.545H268.74V124.852C268.74 124.305 268.587 123.868 268.281 123.543C267.975 123.211 267.51 123.045 266.885 123.045C266.344 123.045 265.902 123.182 265.557 123.455C265.212 123.722 265.039 124.064 265.039 124.48H262.666C262.666 123.901 262.858 123.361 263.242 122.859C263.626 122.352 264.147 121.954 264.805 121.668C265.469 121.382 266.208 121.238 267.021 121.238C268.258 121.238 269.245 121.551 269.98 122.176C270.716 122.794 271.094 123.667 271.113 124.793V129.559C271.113 130.509 271.247 131.268 271.514 131.834V132H269.092ZM266.484 130.291C266.953 130.291 267.393 130.177 267.803 129.949C268.219 129.721 268.532 129.415 268.74 129.031V127.039H267.461C266.582 127.039 265.921 127.192 265.479 127.498C265.036 127.804 264.814 128.237 264.814 128.797C264.814 129.253 264.964 129.617 265.264 129.891C265.57 130.158 265.977 130.291 266.484 130.291ZM280.131 123.602C279.818 123.549 279.496 123.523 279.164 123.523C278.077 123.523 277.344 123.94 276.967 124.773V132H274.594V121.434H276.859L276.918 122.615C277.491 121.697 278.285 121.238 279.301 121.238C279.639 121.238 279.919 121.284 280.141 121.375L280.131 123.602ZM284.832 121.434L284.9 122.654C285.682 121.71 286.707 121.238 287.977 121.238C290.177 121.238 291.297 122.498 291.336 125.018V132H288.963V125.154C288.963 124.484 288.816 123.989 288.523 123.67C288.237 123.344 287.765 123.182 287.107 123.182C286.15 123.182 285.438 123.615 284.969 124.48V132H282.596V121.434H284.832ZM297.287 132H294.914V121.434H297.287V132ZM294.768 118.689C294.768 118.325 294.882 118.022 295.109 117.781C295.344 117.54 295.676 117.42 296.105 117.42C296.535 117.42 296.867 117.54 297.102 117.781C297.336 118.022 297.453 118.325 297.453 118.689C297.453 119.048 297.336 119.347 297.102 119.588C296.867 119.822 296.535 119.939 296.105 119.939C295.676 119.939 295.344 119.822 295.109 119.588C294.882 119.347 294.768 119.048 294.768 118.689ZM303.082 121.434L303.15 122.654C303.932 121.71 304.957 121.238 306.227 121.238C308.427 121.238 309.547 122.498 309.586 125.018V132H307.213V125.154C307.213 124.484 307.066 123.989 306.773 123.67C306.487 123.344 306.015 123.182 305.357 123.182C304.4 123.182 303.688 123.615 303.219 124.48V132H300.846V121.434H303.082ZM312.598 126.639C312.598 124.998 312.982 123.689 313.75 122.713C314.525 121.73 315.55 121.238 316.826 121.238C318.031 121.238 318.978 121.658 319.668 122.498L319.775 121.434H321.914V131.678C321.914 133.064 321.481 134.158 320.615 134.959C319.756 135.76 318.594 136.16 317.129 136.16C316.354 136.16 315.596 135.997 314.854 135.672C314.118 135.353 313.558 134.933 313.174 134.412L314.297 132.986C315.026 133.852 315.924 134.285 316.992 134.285C317.78 134.285 318.402 134.07 318.857 133.641C319.313 133.217 319.541 132.592 319.541 131.766V131.053C318.857 131.814 317.946 132.195 316.807 132.195C315.57 132.195 314.557 131.704 313.77 130.721C312.988 129.738 312.598 128.377 312.598 126.639ZM314.961 126.844C314.961 127.905 315.176 128.742 315.605 129.354C316.042 129.959 316.644 130.262 317.412 130.262C318.369 130.262 319.079 129.852 319.541 129.031V124.383C319.092 123.582 318.389 123.182 317.432 123.182C316.65 123.182 316.042 123.491 315.605 124.109C315.176 124.728 314.961 125.639 314.961 126.844ZM340.594 126.824C340.594 128.458 340.223 129.764 339.48 130.74C338.738 131.71 337.742 132.195 336.492 132.195C335.333 132.195 334.406 131.814 333.709 131.053V136.062H331.336V121.434H333.523L333.621 122.508C334.318 121.661 335.265 121.238 336.463 121.238C337.752 121.238 338.761 121.72 339.49 122.684C340.226 123.641 340.594 124.972 340.594 126.678V126.824ZM338.23 126.619C338.23 125.564 338.019 124.728 337.596 124.109C337.179 123.491 336.58 123.182 335.799 123.182C334.829 123.182 334.132 123.582 333.709 124.383V129.07C334.139 129.891 334.842 130.301 335.818 130.301C336.574 130.301 337.163 129.998 337.586 129.393C338.016 128.781 338.23 127.856 338.23 126.619ZM346.135 132H343.762V117H346.135V132ZM356.041 132C355.937 131.798 355.846 131.469 355.768 131.014C355.012 131.801 354.088 132.195 352.994 132.195C351.933 132.195 351.067 131.893 350.396 131.287C349.726 130.682 349.391 129.933 349.391 129.041C349.391 127.915 349.807 127.052 350.641 126.453C351.48 125.848 352.678 125.545 354.234 125.545H355.689V124.852C355.689 124.305 355.536 123.868 355.23 123.543C354.924 123.211 354.459 123.045 353.834 123.045C353.294 123.045 352.851 123.182 352.506 123.455C352.161 123.722 351.988 124.064 351.988 124.48H349.615C349.615 123.901 349.807 123.361 350.191 122.859C350.576 122.352 351.096 121.954 351.754 121.668C352.418 121.382 353.157 121.238 353.971 121.238C355.208 121.238 356.194 121.551 356.93 122.176C357.665 122.794 358.043 123.667 358.062 124.793V129.559C358.062 130.509 358.196 131.268 358.463 131.834V132H356.041ZM353.434 130.291C353.902 130.291 354.342 130.177 354.752 129.949C355.169 129.721 355.481 129.415 355.689 129.031V127.039H354.41C353.531 127.039 352.87 127.192 352.428 127.498C351.985 127.804 351.764 128.237 351.764 128.797C351.764 129.253 351.913 129.617 352.213 129.891C352.519 130.158 352.926 130.291 353.434 130.291ZM364.521 118.865V121.434H366.387V123.191H364.521V129.09C364.521 129.493 364.6 129.786 364.756 129.969C364.919 130.145 365.205 130.232 365.615 130.232C365.889 130.232 366.165 130.2 366.445 130.135V131.971C365.905 132.12 365.384 132.195 364.883 132.195C363.06 132.195 362.148 131.189 362.148 129.178V123.191H360.41V121.434H362.148V118.865H364.521ZM370.043 132V123.191H368.432V121.434H370.043V120.467C370.043 119.295 370.368 118.39 371.02 117.752C371.671 117.114 372.582 116.795 373.754 116.795C374.171 116.795 374.613 116.854 375.082 116.971L375.023 118.826C374.763 118.774 374.46 118.748 374.115 118.748C372.982 118.748 372.416 119.331 372.416 120.496V121.434H374.564V123.191H372.416V132H370.043ZM376.854 126.619C376.854 125.584 377.059 124.653 377.469 123.826C377.879 122.993 378.455 122.355 379.197 121.912C379.939 121.463 380.792 121.238 381.756 121.238C383.182 121.238 384.337 121.697 385.223 122.615C386.115 123.533 386.596 124.751 386.668 126.268L386.678 126.824C386.678 127.866 386.476 128.797 386.072 129.617C385.675 130.438 385.102 131.072 384.354 131.521C383.611 131.971 382.752 132.195 381.775 132.195C380.285 132.195 379.09 131.701 378.191 130.711C377.299 129.715 376.854 128.39 376.854 126.736V126.619ZM379.227 126.824C379.227 127.911 379.451 128.764 379.9 129.383C380.35 129.995 380.975 130.301 381.775 130.301C382.576 130.301 383.198 129.988 383.641 129.363C384.09 128.738 384.314 127.824 384.314 126.619C384.314 125.551 384.083 124.705 383.621 124.08C383.165 123.455 382.544 123.143 381.756 123.143C380.981 123.143 380.366 123.452 379.91 124.07C379.454 124.682 379.227 125.6 379.227 126.824ZM395.217 123.602C394.904 123.549 394.582 123.523 394.25 123.523C393.163 123.523 392.43 123.94 392.053 124.773V132H389.68V121.434H391.945L392.004 122.615C392.577 121.697 393.371 121.238 394.387 121.238C394.725 121.238 395.005 121.284 395.227 121.375L395.217 123.602ZM399.947 121.434L400.016 122.537C400.758 121.671 401.773 121.238 403.062 121.238C404.475 121.238 405.442 121.779 405.963 122.859C406.731 121.779 407.812 121.238 409.205 121.238C410.37 121.238 411.236 121.561 411.803 122.205C412.376 122.85 412.669 123.8 412.682 125.057V132H410.309V125.125C410.309 124.454 410.162 123.963 409.869 123.65C409.576 123.338 409.091 123.182 408.414 123.182C407.874 123.182 407.431 123.328 407.086 123.621C406.747 123.908 406.51 124.285 406.373 124.754L406.383 132H404.01V125.047C403.977 123.803 403.342 123.182 402.105 123.182C401.155 123.182 400.481 123.569 400.084 124.344V132H397.711V121.434H399.947ZM422.041 129.129C422.041 128.706 421.865 128.383 421.514 128.162C421.169 127.941 420.592 127.745 419.785 127.576C418.978 127.407 418.304 127.192 417.764 126.932C416.579 126.359 415.986 125.529 415.986 124.441C415.986 123.53 416.37 122.768 417.139 122.156C417.907 121.544 418.883 121.238 420.068 121.238C421.331 121.238 422.35 121.551 423.125 122.176C423.906 122.801 424.297 123.611 424.297 124.607H421.924C421.924 124.152 421.755 123.774 421.416 123.475C421.077 123.169 420.628 123.016 420.068 123.016C419.548 123.016 419.121 123.136 418.789 123.377C418.464 123.618 418.301 123.94 418.301 124.344C418.301 124.708 418.454 124.992 418.76 125.193C419.066 125.395 419.684 125.6 420.615 125.809C421.546 126.01 422.275 126.255 422.803 126.541C423.337 126.821 423.73 127.16 423.984 127.557C424.245 127.954 424.375 128.436 424.375 129.002C424.375 129.952 423.981 130.724 423.193 131.316C422.406 131.902 421.374 132.195 420.098 132.195C419.232 132.195 418.46 132.039 417.783 131.727C417.106 131.414 416.579 130.984 416.201 130.438C415.824 129.891 415.635 129.301 415.635 128.67H417.939C417.972 129.23 418.184 129.663 418.574 129.969C418.965 130.268 419.482 130.418 420.127 130.418C420.752 130.418 421.227 130.301 421.553 130.066C421.878 129.826 422.041 129.513 422.041 129.129ZM239.445 155V140.781H243.645C244.901 140.781 246.014 141.061 246.984 141.621C247.961 142.181 248.716 142.975 249.25 144.004C249.784 145.033 250.051 146.211 250.051 147.539V148.252C250.051 149.6 249.781 150.785 249.24 151.807C248.706 152.829 247.941 153.617 246.945 154.17C245.956 154.723 244.82 155 243.537 155H239.445ZM241.916 142.773V153.027H243.527C244.823 153.027 245.816 152.624 246.506 151.816C247.202 151.003 247.557 149.837 247.57 148.32V147.529C247.57 145.986 247.235 144.808 246.564 143.994C245.894 143.18 244.921 142.773 243.645 142.773H241.916ZM255.807 155H253.434V144.434H255.807V155ZM253.287 141.689C253.287 141.325 253.401 141.022 253.629 140.781C253.863 140.54 254.195 140.42 254.625 140.42C255.055 140.42 255.387 140.54 255.621 140.781C255.855 141.022 255.973 141.325 255.973 141.689C255.973 142.048 255.855 142.347 255.621 142.588C255.387 142.822 255.055 142.939 254.625 142.939C254.195 142.939 253.863 142.822 253.629 142.588C253.401 142.347 253.287 142.048 253.287 141.689ZM258.984 149.639C258.984 147.998 259.368 146.689 260.137 145.713C260.911 144.73 261.937 144.238 263.213 144.238C264.417 144.238 265.365 144.658 266.055 145.498L266.162 144.434H268.301V154.678C268.301 156.064 267.868 157.158 267.002 157.959C266.143 158.76 264.98 159.16 263.516 159.16C262.741 159.16 261.982 158.997 261.24 158.672C260.505 158.353 259.945 157.933 259.561 157.412L260.684 155.986C261.413 156.852 262.311 157.285 263.379 157.285C264.167 157.285 264.788 157.07 265.244 156.641C265.7 156.217 265.928 155.592 265.928 154.766V154.053C265.244 154.814 264.333 155.195 263.193 155.195C261.956 155.195 260.944 154.704 260.156 153.721C259.375 152.738 258.984 151.377 258.984 149.639ZM261.348 149.844C261.348 150.905 261.562 151.742 261.992 152.354C262.428 152.959 263.031 153.262 263.799 153.262C264.756 153.262 265.465 152.852 265.928 152.031V147.383C265.479 146.582 264.775 146.182 263.818 146.182C263.037 146.182 262.428 146.491 261.992 147.109C261.562 147.728 261.348 148.639 261.348 149.844ZM274.271 155H271.898V144.434H274.271V155ZM271.752 141.689C271.752 141.325 271.866 141.022 272.094 140.781C272.328 140.54 272.66 140.42 273.09 140.42C273.52 140.42 273.852 140.54 274.086 140.781C274.32 141.022 274.438 141.325 274.438 141.689C274.438 142.048 274.32 142.347 274.086 142.588C273.852 142.822 273.52 142.939 273.09 142.939C272.66 142.939 272.328 142.822 272.094 142.588C271.866 142.347 271.752 142.048 271.752 141.689ZM280.838 141.865V144.434H282.703V146.191H280.838V152.09C280.838 152.493 280.916 152.786 281.072 152.969C281.235 153.145 281.521 153.232 281.932 153.232C282.205 153.232 282.482 153.2 282.762 153.135V154.971C282.221 155.12 281.701 155.195 281.199 155.195C279.376 155.195 278.465 154.189 278.465 152.178V146.191H276.727V144.434H278.465V141.865H280.838ZM291.838 155C291.734 154.798 291.643 154.469 291.564 154.014C290.809 154.801 289.885 155.195 288.791 155.195C287.73 155.195 286.864 154.893 286.193 154.287C285.523 153.682 285.188 152.933 285.188 152.041C285.188 150.915 285.604 150.052 286.438 149.453C287.277 148.848 288.475 148.545 290.031 148.545H291.486V147.852C291.486 147.305 291.333 146.868 291.027 146.543C290.721 146.211 290.256 146.045 289.631 146.045C289.09 146.045 288.648 146.182 288.303 146.455C287.958 146.722 287.785 147.064 287.785 147.48H285.412C285.412 146.901 285.604 146.361 285.988 145.859C286.372 145.352 286.893 144.954 287.551 144.668C288.215 144.382 288.954 144.238 289.768 144.238C291.005 144.238 291.991 144.551 292.727 145.176C293.462 145.794 293.84 146.667 293.859 147.793V152.559C293.859 153.509 293.993 154.268 294.26 154.834V155H291.838ZM289.23 153.291C289.699 153.291 290.139 153.177 290.549 152.949C290.965 152.721 291.278 152.415 291.486 152.031V150.039H290.207C289.328 150.039 288.667 150.192 288.225 150.498C287.782 150.804 287.561 151.237 287.561 151.797C287.561 152.253 287.71 152.617 288.01 152.891C288.316 153.158 288.723 153.291 289.23 153.291ZM299.869 155H297.496V140H299.869V155ZM311.967 155H309.594V144.434H311.967V155ZM309.447 141.689C309.447 141.325 309.561 141.022 309.789 140.781C310.023 140.54 310.355 140.42 310.785 140.42C311.215 140.42 311.547 140.54 311.781 140.781C312.016 141.022 312.133 141.325 312.133 141.689C312.133 142.048 312.016 142.347 311.781 142.588C311.547 142.822 311.215 142.939 310.785 142.939C310.355 142.939 310.023 142.822 309.789 142.588C309.561 142.347 309.447 142.048 309.447 141.689ZM318.084 155H315.711V140H318.084V155ZM324.201 155H321.828V140H324.201V155ZM334.195 153.965C333.499 154.785 332.509 155.195 331.227 155.195C330.081 155.195 329.212 154.86 328.619 154.189C328.033 153.519 327.74 152.549 327.74 151.279V144.434H330.113V151.25C330.113 152.591 330.67 153.262 331.783 153.262C332.936 153.262 333.714 152.848 334.117 152.021V144.434H336.49V155H334.254L334.195 153.965ZM345.83 152.129C345.83 151.706 345.654 151.383 345.303 151.162C344.958 150.941 344.382 150.745 343.574 150.576C342.767 150.407 342.093 150.192 341.553 149.932C340.368 149.359 339.775 148.529 339.775 147.441C339.775 146.53 340.16 145.768 340.928 145.156C341.696 144.544 342.673 144.238 343.857 144.238C345.12 144.238 346.139 144.551 346.914 145.176C347.695 145.801 348.086 146.611 348.086 147.607H345.713C345.713 147.152 345.544 146.774 345.205 146.475C344.867 146.169 344.417 146.016 343.857 146.016C343.337 146.016 342.91 146.136 342.578 146.377C342.253 146.618 342.09 146.94 342.09 147.344C342.09 147.708 342.243 147.992 342.549 148.193C342.855 148.395 343.473 148.6 344.404 148.809C345.335 149.01 346.064 149.255 346.592 149.541C347.126 149.821 347.52 150.16 347.773 150.557C348.034 150.954 348.164 151.436 348.164 152.002C348.164 152.952 347.77 153.724 346.982 154.316C346.195 154.902 345.163 155.195 343.887 155.195C343.021 155.195 342.249 155.039 341.572 154.727C340.895 154.414 340.368 153.984 339.99 153.438C339.613 152.891 339.424 152.301 339.424 151.67H341.729C341.761 152.23 341.973 152.663 342.363 152.969C342.754 153.268 343.271 153.418 343.916 153.418C344.541 153.418 345.016 153.301 345.342 153.066C345.667 152.826 345.83 152.513 345.83 152.129ZM354.213 141.865V144.434H356.078V146.191H354.213V152.09C354.213 152.493 354.291 152.786 354.447 152.969C354.61 153.145 354.896 153.232 355.307 153.232C355.58 153.232 355.857 153.2 356.137 153.135V154.971C355.596 155.12 355.076 155.195 354.574 155.195C352.751 155.195 351.84 154.189 351.84 152.178V146.191H350.102V144.434H351.84V141.865H354.213ZM364.432 146.602C364.119 146.549 363.797 146.523 363.465 146.523C362.378 146.523 361.645 146.94 361.268 147.773V155H358.895V144.434H361.16L361.219 145.615C361.792 144.697 362.586 144.238 363.602 144.238C363.94 144.238 364.22 144.284 364.441 144.375L364.432 146.602ZM372.951 155C372.847 154.798 372.756 154.469 372.678 154.014C371.923 154.801 370.998 155.195 369.904 155.195C368.843 155.195 367.977 154.893 367.307 154.287C366.636 153.682 366.301 152.933 366.301 152.041C366.301 150.915 366.717 150.052 367.551 149.453C368.391 148.848 369.589 148.545 371.145 148.545H372.6V147.852C372.6 147.305 372.447 146.868 372.141 146.543C371.835 146.211 371.369 146.045 370.744 146.045C370.204 146.045 369.761 146.182 369.416 146.455C369.071 146.722 368.898 147.064 368.898 147.48H366.525C366.525 146.901 366.717 146.361 367.102 145.859C367.486 145.352 368.007 144.954 368.664 144.668C369.328 144.382 370.067 144.238 370.881 144.238C372.118 144.238 373.104 144.551 373.84 145.176C374.576 145.794 374.953 146.667 374.973 147.793V152.559C374.973 153.509 375.106 154.268 375.373 154.834V155H372.951ZM370.344 153.291C370.812 153.291 371.252 153.177 371.662 152.949C372.079 152.721 372.391 152.415 372.6 152.031V150.039H371.32C370.441 150.039 369.781 150.192 369.338 150.498C368.895 150.804 368.674 151.237 368.674 151.797C368.674 152.253 368.824 152.617 369.123 152.891C369.429 153.158 369.836 153.291 370.344 153.291ZM381.432 141.865V144.434H383.297V146.191H381.432V152.09C381.432 152.493 381.51 152.786 381.666 152.969C381.829 153.145 382.115 153.232 382.525 153.232C382.799 153.232 383.076 153.2 383.355 153.135V154.971C382.815 155.12 382.294 155.195 381.793 155.195C379.97 155.195 379.059 154.189 379.059 152.178V146.191H377.32V144.434H379.059V141.865H381.432ZM388.643 155H386.27V144.434H388.643V155ZM386.123 141.689C386.123 141.325 386.237 141.022 386.465 140.781C386.699 140.54 387.031 140.42 387.461 140.42C387.891 140.42 388.223 140.54 388.457 140.781C388.691 141.022 388.809 141.325 388.809 141.689C388.809 142.048 388.691 142.347 388.457 142.588C388.223 142.822 387.891 142.939 387.461 142.939C387.031 142.939 386.699 142.822 386.465 142.588C386.237 142.347 386.123 142.048 386.123 141.689ZM391.791 149.619C391.791 148.584 391.996 147.653 392.406 146.826C392.816 145.993 393.393 145.355 394.135 144.912C394.877 144.463 395.73 144.238 396.693 144.238C398.119 144.238 399.275 144.697 400.16 145.615C401.052 146.533 401.534 147.751 401.605 149.268L401.615 149.824C401.615 150.866 401.413 151.797 401.01 152.617C400.613 153.438 400.04 154.072 399.291 154.521C398.549 154.971 397.689 155.195 396.713 155.195C395.222 155.195 394.027 154.701 393.129 153.711C392.237 152.715 391.791 151.39 391.791 149.736V149.619ZM394.164 149.824C394.164 150.911 394.389 151.764 394.838 152.383C395.287 152.995 395.912 153.301 396.713 153.301C397.514 153.301 398.135 152.988 398.578 152.363C399.027 151.738 399.252 150.824 399.252 149.619C399.252 148.551 399.021 147.705 398.559 147.08C398.103 146.455 397.481 146.143 396.693 146.143C395.919 146.143 395.303 146.452 394.848 147.07C394.392 147.682 394.164 148.6 394.164 149.824ZM406.824 144.434L406.893 145.654C407.674 144.71 408.699 144.238 409.969 144.238C412.169 144.238 413.289 145.498 413.328 148.018V155H410.955V148.154C410.955 147.484 410.809 146.989 410.516 146.67C410.229 146.344 409.757 146.182 409.1 146.182C408.143 146.182 407.43 146.615 406.961 147.48V155H404.588V144.434H406.824ZM422.678 152.129C422.678 151.706 422.502 151.383 422.15 151.162C421.805 150.941 421.229 150.745 420.422 150.576C419.615 150.407 418.941 150.192 418.4 149.932C417.215 149.359 416.623 148.529 416.623 147.441C416.623 146.53 417.007 145.768 417.775 145.156C418.544 144.544 419.52 144.238 420.705 144.238C421.968 144.238 422.987 144.551 423.762 145.176C424.543 145.801 424.934 146.611 424.934 147.607H422.561C422.561 147.152 422.391 146.774 422.053 146.475C421.714 146.169 421.265 146.016 420.705 146.016C420.184 146.016 419.758 146.136 419.426 146.377C419.1 146.618 418.938 146.94 418.938 147.344C418.938 147.708 419.09 147.992 419.396 148.193C419.702 148.395 420.321 148.6 421.252 148.809C422.183 149.01 422.912 149.255 423.439 149.541C423.973 149.821 424.367 150.16 424.621 150.557C424.882 150.954 425.012 151.436 425.012 152.002C425.012 152.952 424.618 153.724 423.83 154.316C423.042 154.902 422.01 155.195 420.734 155.195C419.868 155.195 419.097 155.039 418.42 154.727C417.743 154.414 417.215 153.984 416.838 153.438C416.46 152.891 416.271 152.301 416.271 151.67H418.576C418.609 152.23 418.82 152.663 419.211 152.969C419.602 153.268 420.119 153.418 420.764 153.418C421.389 153.418 421.864 153.301 422.189 153.066C422.515 152.826 422.678 152.513 422.678 152.129ZM242.648 163.781L246.75 174.68L250.842 163.781H254.035V178H251.574V173.312L251.818 167.043L247.619 178H245.852L241.662 167.053L241.906 173.312V178H239.445V163.781H242.648ZM260.26 178H257.887V167.434H260.26V178ZM257.74 164.689C257.74 164.325 257.854 164.022 258.082 163.781C258.316 163.54 258.648 163.42 259.078 163.42C259.508 163.42 259.84 163.54 260.074 163.781C260.309 164.022 260.426 164.325 260.426 164.689C260.426 165.048 260.309 165.347 260.074 165.588C259.84 165.822 259.508 165.939 259.078 165.939C258.648 165.939 258.316 165.822 258.082 165.588C257.854 165.347 257.74 165.048 257.74 164.689ZM268.193 176.301C268.786 176.301 269.277 176.128 269.668 175.783C270.059 175.438 270.267 175.012 270.293 174.504H272.529C272.503 175.161 272.298 175.777 271.914 176.35C271.53 176.916 271.009 177.365 270.352 177.697C269.694 178.029 268.984 178.195 268.223 178.195C266.745 178.195 265.573 177.717 264.707 176.76C263.841 175.803 263.408 174.481 263.408 172.795V172.551C263.408 170.943 263.838 169.657 264.697 168.693C265.557 167.723 266.729 167.238 268.213 167.238C269.469 167.238 270.492 167.606 271.279 168.342C272.074 169.071 272.49 170.031 272.529 171.223H270.293C270.267 170.617 270.059 170.119 269.668 169.729C269.284 169.338 268.792 169.143 268.193 169.143C267.425 169.143 266.833 169.423 266.416 169.982C265.999 170.536 265.788 171.379 265.781 172.512V172.893C265.781 174.038 265.986 174.895 266.396 175.461C266.813 176.021 267.412 176.301 268.193 176.301ZM280.854 169.602C280.541 169.549 280.219 169.523 279.887 169.523C278.799 169.523 278.067 169.94 277.689 170.773V178H275.316V167.434H277.582L277.641 168.615C278.214 167.697 279.008 167.238 280.023 167.238C280.362 167.238 280.642 167.284 280.863 167.375L280.854 169.602ZM282.557 172.619C282.557 171.584 282.762 170.653 283.172 169.826C283.582 168.993 284.158 168.355 284.9 167.912C285.643 167.463 286.495 167.238 287.459 167.238C288.885 167.238 290.04 167.697 290.926 168.615C291.818 169.533 292.299 170.751 292.371 172.268L292.381 172.824C292.381 173.866 292.179 174.797 291.775 175.617C291.378 176.438 290.805 177.072 290.057 177.521C289.314 177.971 288.455 178.195 287.479 178.195C285.988 178.195 284.793 177.701 283.895 176.711C283.003 175.715 282.557 174.39 282.557 172.736V172.619ZM284.93 172.824C284.93 173.911 285.154 174.764 285.604 175.383C286.053 175.995 286.678 176.301 287.479 176.301C288.279 176.301 288.901 175.988 289.344 175.363C289.793 174.738 290.018 173.824 290.018 172.619C290.018 171.551 289.786 170.705 289.324 170.08C288.868 169.455 288.247 169.143 287.459 169.143C286.684 169.143 286.069 169.452 285.613 170.07C285.158 170.682 284.93 171.6 284.93 172.824ZM301.311 175.129C301.311 174.706 301.135 174.383 300.783 174.162C300.438 173.941 299.862 173.745 299.055 173.576C298.247 173.407 297.574 173.192 297.033 172.932C295.848 172.359 295.256 171.529 295.256 170.441C295.256 169.53 295.64 168.768 296.408 168.156C297.176 167.544 298.153 167.238 299.338 167.238C300.601 167.238 301.62 167.551 302.395 168.176C303.176 168.801 303.566 169.611 303.566 170.607H301.193C301.193 170.152 301.024 169.774 300.686 169.475C300.347 169.169 299.898 169.016 299.338 169.016C298.817 169.016 298.391 169.136 298.059 169.377C297.733 169.618 297.57 169.94 297.57 170.344C297.57 170.708 297.723 170.992 298.029 171.193C298.335 171.395 298.954 171.6 299.885 171.809C300.816 172.01 301.545 172.255 302.072 172.541C302.606 172.821 303 173.16 303.254 173.557C303.514 173.954 303.645 174.436 303.645 175.002C303.645 175.952 303.251 176.724 302.463 177.316C301.675 177.902 300.643 178.195 299.367 178.195C298.501 178.195 297.73 178.039 297.053 177.727C296.376 177.414 295.848 176.984 295.471 176.438C295.093 175.891 294.904 175.301 294.904 174.67H297.209C297.242 175.23 297.453 175.663 297.844 175.969C298.234 176.268 298.752 176.418 299.396 176.418C300.021 176.418 300.497 176.301 300.822 176.066C301.148 175.826 301.311 175.513 301.311 175.129ZM306.275 172.619C306.275 171.584 306.48 170.653 306.891 169.826C307.301 168.993 307.877 168.355 308.619 167.912C309.361 167.463 310.214 167.238 311.178 167.238C312.604 167.238 313.759 167.697 314.645 168.615C315.536 169.533 316.018 170.751 316.09 172.268L316.1 172.824C316.1 173.866 315.898 174.797 315.494 175.617C315.097 176.438 314.524 177.072 313.775 177.521C313.033 177.971 312.174 178.195 311.197 178.195C309.706 178.195 308.512 177.701 307.613 176.711C306.721 175.715 306.275 174.39 306.275 172.736V172.619ZM308.648 172.824C308.648 173.911 308.873 174.764 309.322 175.383C309.771 175.995 310.396 176.301 311.197 176.301C311.998 176.301 312.62 175.988 313.062 175.363C313.512 174.738 313.736 173.824 313.736 172.619C313.736 171.551 313.505 170.705 313.043 170.08C312.587 169.455 311.965 169.143 311.178 169.143C310.403 169.143 309.788 169.452 309.332 170.07C308.876 170.682 308.648 171.6 308.648 172.824ZM319.941 178V169.191H318.33V167.434H319.941V166.467C319.941 165.295 320.267 164.39 320.918 163.752C321.569 163.114 322.48 162.795 323.652 162.795C324.069 162.795 324.512 162.854 324.98 162.971L324.922 164.826C324.661 164.774 324.359 164.748 324.014 164.748C322.881 164.748 322.314 165.331 322.314 166.496V167.434H324.463V169.191H322.314V178H319.941ZM330.17 164.865V167.434H332.035V169.191H330.17V175.09C330.17 175.493 330.248 175.786 330.404 175.969C330.567 176.145 330.854 176.232 331.264 176.232C331.537 176.232 331.814 176.2 332.094 176.135V177.971C331.553 178.12 331.033 178.195 330.531 178.195C328.708 178.195 327.797 177.189 327.797 175.178V169.191H326.059V167.434H327.797V164.865H330.17ZM349.377 171.652H343.537V176.027H350.363V178H341.066V163.781H350.295V165.773H343.537V169.699H349.377V171.652ZM352.506 172.639C352.506 171.011 352.883 169.706 353.639 168.723C354.394 167.733 355.406 167.238 356.676 167.238C357.796 167.238 358.701 167.629 359.391 168.41V163H361.764V178H359.615L359.498 176.906C358.788 177.766 357.841 178.195 356.656 178.195C355.419 178.195 354.417 177.697 353.648 176.701C352.887 175.705 352.506 174.351 352.506 172.639ZM354.879 172.844C354.879 173.918 355.084 174.758 355.494 175.363C355.911 175.962 356.5 176.262 357.262 176.262C358.232 176.262 358.941 175.829 359.391 174.963V170.451C358.954 169.605 358.251 169.182 357.281 169.182C356.513 169.182 355.921 169.488 355.504 170.1C355.087 170.705 354.879 171.62 354.879 172.844ZM364.824 172.639C364.824 170.998 365.208 169.689 365.977 168.713C366.751 167.73 367.777 167.238 369.053 167.238C370.257 167.238 371.204 167.658 371.895 168.498L372.002 167.434H374.141V177.678C374.141 179.064 373.708 180.158 372.842 180.959C371.982 181.76 370.82 182.16 369.355 182.16C368.581 182.16 367.822 181.997 367.08 181.672C366.344 181.353 365.785 180.933 365.4 180.412L366.523 178.986C367.253 179.852 368.151 180.285 369.219 180.285C370.007 180.285 370.628 180.07 371.084 179.641C371.54 179.217 371.768 178.592 371.768 177.766V177.053C371.084 177.814 370.173 178.195 369.033 178.195C367.796 178.195 366.784 177.704 365.996 176.721C365.215 175.738 364.824 174.377 364.824 172.639ZM367.188 172.844C367.188 173.905 367.402 174.742 367.832 175.354C368.268 175.959 368.87 176.262 369.639 176.262C370.596 176.262 371.305 175.852 371.768 175.031V170.383C371.318 169.582 370.615 169.182 369.658 169.182C368.877 169.182 368.268 169.491 367.832 170.109C367.402 170.728 367.188 171.639 367.188 172.844ZM382.24 178.195C380.736 178.195 379.516 177.723 378.578 176.779C377.647 175.829 377.182 174.566 377.182 172.99V172.697C377.182 171.643 377.383 170.702 377.787 169.875C378.197 169.042 378.77 168.394 379.506 167.932C380.242 167.469 381.062 167.238 381.967 167.238C383.406 167.238 384.516 167.697 385.297 168.615C386.085 169.533 386.479 170.832 386.479 172.512V173.469H379.574C379.646 174.341 379.936 175.031 380.443 175.539C380.958 176.047 381.602 176.301 382.377 176.301C383.464 176.301 384.35 175.861 385.033 174.982L386.312 176.203C385.889 176.835 385.323 177.326 384.613 177.678C383.91 178.023 383.119 178.195 382.24 178.195ZM381.957 169.143C381.306 169.143 380.779 169.37 380.375 169.826C379.978 170.282 379.724 170.917 379.613 171.73H384.135V171.555C384.083 170.76 383.871 170.161 383.5 169.758C383.129 169.348 382.615 169.143 381.957 169.143Z" fill="#B8B7BC"/>
</svg>
