<svg width="553" height="451" viewBox="0 0 553 451" fill="none" xmlns="http://www.w3.org/2000/svg">
<path d="M8.13281 31H6.72656V15.625L2.08594 17.3477V16.0352L7.89844 13.8789H8.13281V31ZM26.0719 23.1016C25.5719 23.8359 24.9508 24.4062 24.2086 24.8125C23.4664 25.2109 22.6617 25.4102 21.7945 25.4102C20.8258 25.4102 19.9703 25.1602 19.2281 24.6602C18.4859 24.1602 17.9117 23.4688 17.5055 22.5859C17.0992 21.7031 16.8961 20.7383 16.8961 19.6914C16.8961 18.5664 17.1109 17.543 17.5406 16.6211C17.9781 15.6992 18.5836 14.9844 19.357 14.4766C20.1383 13.9609 21.0367 13.7031 22.0523 13.7031C23.7633 13.7031 25.0953 14.3047 26.0484 15.5078C27.0016 16.7031 27.4781 18.4023 27.4781 20.6055V21.8711C27.4781 24.9492 26.8219 27.2617 25.5094 28.8086C24.1969 30.3555 22.193 31.1289 19.4977 31.1289H19.2398L19.2516 29.9102H19.7437C21.7828 29.8789 23.3336 29.3008 24.3961 28.1758C25.4586 27.0508 26.0172 25.3594 26.0719 23.1016ZM21.9703 24.2031C22.9078 24.2031 23.7477 23.9258 24.4898 23.3711C25.2398 22.8086 25.7711 22.082 26.0836 21.1914V20.3828C26.0836 18.6484 25.7203 17.3047 24.9937 16.3516C24.275 15.3906 23.3023 14.9102 22.0758 14.9102C20.9664 14.9102 20.0562 15.3594 19.3453 16.2578C18.6344 17.1484 18.2789 18.2734 18.2789 19.6328C18.2789 20.9375 18.6187 22.0273 19.2984 22.9023C19.9859 23.7695 20.8766 24.2031 21.9703 24.2031ZM33.1242 30.1562C33.1242 29.8828 33.2102 29.6523 33.382 29.4648C33.5617 29.2695 33.8078 29.1719 34.1203 29.1719C34.4328 29.1719 34.6789 29.2695 34.8586 29.4648C35.0383 29.6523 35.1281 29.8828 35.1281 30.1562C35.1281 30.4297 35.0383 30.6562 34.8586 30.8359C34.6789 31.0078 34.4328 31.0938 34.1203 31.0938C33.8078 31.0938 33.5617 31.0078 33.382 30.8359C33.2102 30.6562 33.1242 30.4297 33.1242 30.1562ZM42.1219 22.2578L42.9539 13.9375H51.4852V15.2383H44.1609L43.5633 21.0039C44.4773 20.3789 45.5477 20.0664 46.7742 20.0664C48.3133 20.0664 49.5398 20.5664 50.4539 21.5664C51.368 22.5664 51.825 23.8984 51.825 25.5625C51.825 27.3594 51.3797 28.7539 50.4891 29.7461C49.5984 30.7383 48.3445 31.2344 46.7273 31.2344C45.243 31.2344 44.0398 30.8203 43.118 29.9922C42.1961 29.1641 41.6688 28.0039 41.5359 26.5117H42.8836C43.0164 27.6758 43.4109 28.5586 44.0672 29.1602C44.7234 29.7539 45.6102 30.0508 46.7273 30.0508C47.9461 30.0508 48.8641 29.6641 49.4813 28.8906C50.1063 28.1172 50.4188 27.0156 50.4188 25.5859C50.4188 24.3359 50.0711 23.3164 49.3758 22.5273C48.6805 21.7383 47.7313 21.3438 46.5281 21.3438C45.8641 21.3438 45.2859 21.4297 44.7938 21.6016C44.3016 21.7656 43.782 22.0898 43.2352 22.5742L42.1219 22.2578ZM70.8164 28.8906L70.9102 29.2539L71.0156 28.8906L76.3828 13.9375H77.9648L71.6133 31H70.2305L63.8789 13.9375H65.4492L70.8164 28.8906ZM99.3234 23.1016C98.8234 23.8359 98.2023 24.4062 97.4602 24.8125C96.718 25.2109 95.9133 25.4102 95.0461 25.4102C94.0773 25.4102 93.2219 25.1602 92.4797 24.6602C91.7375 24.1602 91.1633 23.4688 90.757 22.5859C90.3508 21.7031 90.1477 20.7383 90.1477 19.6914C90.1477 18.5664 90.3625 17.543 90.7922 16.6211C91.2297 15.6992 91.8352 14.9844 92.6086 14.4766C93.3898 13.9609 94.2883 13.7031 95.3039 13.7031C97.0148 13.7031 98.3469 14.3047 99.3 15.5078C100.253 16.7031 100.73 18.4023 100.73 20.6055V21.8711C100.73 24.9492 100.073 27.2617 98.7609 28.8086C97.4484 30.3555 95.4445 31.1289 92.7492 31.1289H92.4914L92.5031 29.9102H92.9953C95.0344 29.8789 96.5852 29.3008 97.6477 28.1758C98.7102 27.0508 99.2688 25.3594 99.3234 23.1016ZM95.2219 24.2031C96.1594 24.2031 96.9992 23.9258 97.7414 23.3711C98.4914 22.8086 99.0227 22.082 99.3352 21.1914V20.3828C99.3352 18.6484 98.9719 17.3047 98.2453 16.3516C97.5266 15.3906 96.5539 14.9102 95.3273 14.9102C94.218 14.9102 93.3078 15.3594 92.5969 16.2578C91.8859 17.1484 91.5305 18.2734 91.5305 19.6328C91.5305 20.9375 91.8703 22.0273 92.55 22.9023C93.2375 23.7695 94.1281 24.2031 95.2219 24.2031ZM106.376 30.1562C106.376 29.8828 106.462 29.6523 106.634 29.4648C106.813 29.2695 107.059 29.1719 107.372 29.1719C107.684 29.1719 107.93 29.2695 108.11 29.4648C108.29 29.6523 108.38 29.8828 108.38 30.1562C108.38 30.4297 108.29 30.6562 108.11 30.8359C107.93 31.0078 107.684 31.0938 107.372 31.0938C107.059 31.0938 106.813 31.0078 106.634 30.8359C106.462 30.6562 106.376 30.4297 106.376 30.1562ZM125.112 31H114.424V29.9219L120.272 23.2891C121.241 22.1719 121.912 21.25 122.287 20.5234C122.662 19.7969 122.85 19.0898 122.85 18.4023C122.85 17.3242 122.534 16.4727 121.901 15.8477C121.268 15.2148 120.397 14.8984 119.287 14.8984C118.139 14.8984 117.209 15.2656 116.498 16C115.795 16.7344 115.444 17.6875 115.444 18.8594H114.049C114.049 17.8984 114.264 17.0234 114.694 16.2344C115.131 15.4453 115.748 14.8281 116.545 14.3828C117.35 13.9297 118.264 13.7031 119.287 13.7031C120.85 13.7031 122.069 14.1133 122.944 14.9336C123.827 15.7539 124.268 16.8711 124.268 18.2852C124.268 19.082 124.018 19.9531 123.518 20.8984C123.026 21.8438 122.155 23.0234 120.905 24.4375L116.147 29.8164H125.112V31ZM133.254 21.707H134.707C135.512 21.707 136.215 21.5664 136.816 21.2852C137.418 20.9961 137.875 20.6055 138.188 20.1133C138.508 19.6133 138.668 19.0391 138.668 18.3906C138.668 17.2969 138.359 16.4414 137.742 15.8242C137.125 15.207 136.238 14.8984 135.082 14.8984C133.988 14.8984 133.09 15.2227 132.387 15.8711C131.691 16.5117 131.344 17.3594 131.344 18.4141H129.938C129.938 17.5312 130.16 16.7266 130.605 16C131.051 15.2656 131.668 14.6992 132.457 14.3008C133.246 13.9023 134.121 13.7031 135.082 13.7031C136.629 13.7031 137.848 14.125 138.738 14.9688C139.629 15.8125 140.074 16.9688 140.074 18.4375C140.074 19.2578 139.812 20.0156 139.289 20.7109C138.773 21.3984 138.062 21.9141 137.156 22.2578C138.219 22.5547 139.023 23.0664 139.57 23.793C140.117 24.5117 140.391 25.3711 140.391 26.3711C140.391 27.832 139.914 29.0078 138.961 29.8984C138.008 30.7891 136.734 31.2344 135.141 31.2344C134.125 31.2344 133.191 31.0312 132.34 30.625C131.496 30.2188 130.84 29.6523 130.371 28.9258C129.91 28.1914 129.68 27.3398 129.68 26.3711H131.086C131.086 27.457 131.465 28.3438 132.223 29.0312C132.98 29.7109 133.953 30.0508 135.141 30.0508C136.352 30.0508 137.293 29.7422 137.965 29.125C138.645 28.5 138.984 27.5977 138.984 26.418C138.984 25.2773 138.617 24.4062 137.883 23.8047C137.156 23.2031 136.082 22.9023 134.66 22.9023H133.254V21.707ZM155.611 26.2188H147.865L146.107 31H144.595L151.052 13.9375H152.423L158.88 31H157.38L155.611 26.2188ZM148.31 24.9883H155.154L151.732 15.6953L148.31 24.9883ZM181.247 26.2188H173.501L171.743 31H170.231L176.688 13.9375H178.059L184.516 31H183.016L181.247 26.2188ZM173.946 24.9883H180.79L177.368 15.6953L173.946 24.9883ZM189.436 31V13.9375H194.205C195.604 13.9375 196.858 14.2578 197.967 14.8984C199.077 15.5312 199.94 16.4414 200.557 17.6289C201.182 18.8164 201.495 20.168 201.495 21.6836V23.2539C201.495 24.7773 201.186 26.1289 200.569 27.3086C199.952 28.4883 199.08 29.3984 197.955 30.0391C196.838 30.6797 195.553 31 194.1 31H189.436ZM190.877 15.168V29.7812H194.112C195.909 29.7812 197.35 29.1875 198.436 28C199.522 26.8047 200.065 25.1914 200.065 23.1602V21.6602C200.065 19.6992 199.53 18.1289 198.459 16.9492C197.389 15.7695 195.979 15.1758 194.229 15.168H190.877ZM216.516 26.2188H208.77L207.012 31H205.5L211.957 13.9375H213.328L219.785 31H218.285L216.516 26.2188ZM209.215 24.9883H216.059L212.637 15.6953L209.215 24.9883ZM226.146 24.0508V31H224.705V13.9375H230.517C232.291 13.9375 233.689 14.3906 234.712 15.2969C235.744 16.2031 236.259 17.4492 236.259 19.0352C236.259 20.6367 235.763 21.875 234.771 22.75C233.787 23.6172 232.357 24.0508 230.482 24.0508H226.146ZM226.146 22.832H230.517C231.916 22.832 232.982 22.5 233.716 21.8359C234.451 21.1719 234.818 20.2461 234.818 19.0586C234.818 17.8789 234.451 16.9414 233.716 16.2461C232.99 15.543 231.955 15.1836 230.611 15.168H226.146V22.832ZM253.472 15.168H247.624V31H246.183V15.168H240.347V13.9375H253.472V15.168ZM268.059 22.8203H260.079V29.7812H269.255V31H258.638V13.9375H269.196V15.168H260.079V21.6016H268.059V22.8203ZM281.077 23.8984H276.12V31H274.666V13.9375H280.209C282.03 13.9375 283.452 14.3789 284.475 15.2617C285.498 16.1445 286.01 17.3789 286.01 18.9648C286.01 20.0586 285.69 21.0234 285.049 21.8594C284.409 22.6953 283.549 23.2734 282.471 23.5938L286.737 30.8477V31H285.202L281.077 23.8984ZM276.12 22.668H280.538C281.748 22.668 282.721 22.3242 283.455 21.6367C284.19 20.9492 284.557 20.0586 284.557 18.9648C284.557 17.7617 284.174 16.8281 283.409 16.1641C282.643 15.5 281.569 15.168 280.186 15.168H276.12V22.668ZM312.654 25.6797C312.459 27.4766 311.814 28.8516 310.72 29.8047C309.634 30.7578 308.185 31.2344 306.373 31.2344C305.107 31.2344 303.986 30.918 303.009 30.2852C302.041 29.6523 301.291 28.7578 300.759 27.6016C300.228 26.4375 299.959 25.1094 299.951 23.6172V21.4023C299.951 19.8867 300.216 18.543 300.748 17.3711C301.279 16.1992 302.041 15.2969 303.033 14.6641C304.033 14.0234 305.181 13.7031 306.478 13.7031C308.306 13.7031 309.748 14.1992 310.802 15.1914C311.865 16.1758 312.482 17.5391 312.654 19.2812H311.201C310.841 16.3828 309.267 14.9336 306.478 14.9336C304.931 14.9336 303.697 15.5117 302.775 16.668C301.861 17.8242 301.404 19.4219 301.404 21.4609V23.5469C301.404 25.5156 301.849 27.0859 302.74 28.2578C303.638 29.4297 304.849 30.0156 306.373 30.0156C307.88 30.0156 309.017 29.6562 309.783 28.9375C310.548 28.2109 311.021 27.125 311.201 25.6797H312.654ZM331.202 31H329.749V22.8203H319.999V31H318.558V13.9375H319.999V21.6016H329.749V13.9375H331.202V31ZM347.372 26.2188H339.626L337.868 31H336.356L342.813 13.9375H344.184L350.641 31H349.141L347.372 26.2188ZM340.071 24.9883H346.915L343.493 15.6953L340.071 24.9883ZM361.936 23.8984H356.979V31H355.526V13.9375H361.069C362.889 13.9375 364.311 14.3789 365.334 15.2617C366.358 16.1445 366.87 17.3789 366.87 18.9648C366.87 20.0586 366.549 21.0234 365.909 21.8594C365.268 22.6953 364.409 23.2734 363.33 23.5938L367.596 30.8477V31H366.061L361.936 23.8984ZM356.979 22.668H361.397C362.608 22.668 363.58 22.3242 364.315 21.6367C365.049 20.9492 365.416 20.0586 365.416 18.9648C365.416 17.7617 365.034 16.8281 364.268 16.1641C363.502 15.5 362.428 15.168 361.045 15.168H356.979V22.668ZM385.512 28.9727C385.012 29.6836 384.227 30.2383 383.156 30.6367C382.094 31.0352 380.902 31.2344 379.582 31.2344C378.246 31.2344 377.059 30.9141 376.02 30.2734C374.98 29.6328 374.176 28.7266 373.605 27.5547C373.035 26.3828 372.746 25.0391 372.738 23.5234V21.3672C372.738 19 373.336 17.1328 374.531 15.7656C375.727 14.3906 377.332 13.7031 379.348 13.7031C381.105 13.7031 382.52 14.1523 383.59 15.0508C384.66 15.9414 385.297 17.1719 385.5 18.7422H384.059C383.848 17.4922 383.336 16.5469 382.523 15.9062C381.719 15.2578 380.664 14.9336 379.359 14.9336C377.766 14.9336 376.504 15.5 375.574 16.6328C374.645 17.7656 374.18 19.3633 374.18 21.4258V23.4414C374.18 24.7383 374.398 25.8867 374.836 26.8867C375.281 27.8789 375.914 28.6484 376.734 29.1953C377.562 29.7422 378.512 30.0156 379.582 30.0156C380.824 30.0156 381.891 29.8203 382.781 29.4297C383.359 29.1719 383.789 28.8711 384.07 28.5273V24.1211H379.488V22.9023H385.512V28.9727ZM401.423 22.8203H393.443V29.7812H402.619V31H392.002V13.9375H402.56V15.168H393.443V21.6016H401.423V22.8203ZM414.441 23.8984H409.484V31H408.03V13.9375H413.573C415.394 13.9375 416.816 14.3789 417.839 15.2617C418.862 16.1445 419.374 17.3789 419.374 18.9648C419.374 20.0586 419.054 21.0234 418.413 21.8594C417.773 22.6953 416.913 23.2734 415.835 23.5938L420.101 30.8477V31H418.566L414.441 23.8984ZM409.484 22.668H413.902C415.112 22.668 416.085 22.3242 416.82 21.6367C417.554 20.9492 417.921 20.0586 417.921 18.9648C417.921 17.7617 417.538 16.8281 416.773 16.1641C416.007 15.5 414.933 15.168 413.55 15.168H409.484V22.668Z" fill="white"/>
<path d="M5.30859 109.395L5.83594 112.043L6.48047 109.512L10.1836 96.9375H11.4844L15.1406 109.512L15.7734 112.066L16.3359 109.395L19.418 96.9375H20.8945L16.5234 114H15.1406L11.2734 100.652L10.8398 98.9648L10.418 100.652L6.45703 114H5.07422L0.714844 96.9375H2.19141L5.30859 109.395ZM27.525 112.781H35.9508V114H26.0719V96.9375H27.525V112.781ZM50.5734 109.219H42.8273L41.0695 114H39.5578L46.0148 96.9375H47.3859L53.843 114H52.343L50.5734 109.219ZM43.2727 107.988H50.1164L46.6945 98.6953L43.2727 107.988ZM71.4656 114H70.0242L60.2156 99.3984V114H58.7625V96.9375H60.2156L70.0359 111.551V96.9375H71.4656V114ZM94.5 108.504H97.1602V109.688H94.5V114H93.0938V109.688H85.0664V108.891L92.9648 96.9375H94.5V108.504ZM86.7891 108.504H93.0938V98.7539L92.4727 99.832L86.7891 108.504ZM114.466 111.973C113.966 112.684 113.181 113.238 112.111 113.637C111.048 114.035 109.857 114.234 108.537 114.234C107.201 114.234 106.013 113.914 104.974 113.273C103.935 112.633 103.13 111.727 102.56 110.555C101.99 109.383 101.701 108.039 101.693 106.523V104.367C101.693 102 102.291 100.133 103.486 98.7656C104.681 97.3906 106.287 96.7031 108.302 96.7031C110.06 96.7031 111.474 97.1523 112.545 98.0508C113.615 98.9414 114.252 100.172 114.455 101.742H113.013C112.802 100.492 112.291 99.5469 111.478 98.9062C110.673 98.2578 109.619 97.9336 108.314 97.9336C106.72 97.9336 105.459 98.5 104.529 99.6328C103.599 100.766 103.134 102.363 103.134 104.426V106.441C103.134 107.738 103.353 108.887 103.791 109.887C104.236 110.879 104.869 111.648 105.689 112.195C106.517 112.742 107.466 113.016 108.537 113.016C109.779 113.016 110.845 112.82 111.736 112.43C112.314 112.172 112.744 111.871 113.025 111.527V107.121H108.443V105.902H114.466V111.973ZM128.665 115.465H127.387L134.512 96.9375H135.778L128.665 115.465ZM149.766 105.258L150.598 96.9375H159.129V98.2383H151.805L151.207 104.004C152.121 103.379 153.191 103.066 154.418 103.066C155.957 103.066 157.184 103.566 158.098 104.566C159.012 105.566 159.469 106.898 159.469 108.562C159.469 110.359 159.023 111.754 158.133 112.746C157.242 113.738 155.988 114.234 154.371 114.234C152.887 114.234 151.684 113.82 150.762 112.992C149.84 112.164 149.312 111.004 149.18 109.512H150.527C150.66 110.676 151.055 111.559 151.711 112.16C152.367 112.754 153.254 113.051 154.371 113.051C155.59 113.051 156.508 112.664 157.125 111.891C157.75 111.117 158.062 110.016 158.062 108.586C158.062 107.336 157.715 106.316 157.02 105.527C156.324 104.738 155.375 104.344 154.172 104.344C153.508 104.344 152.93 104.43 152.438 104.602C151.945 104.766 151.426 105.09 150.879 105.574L149.766 105.258ZM177.396 111.973C176.896 112.684 176.111 113.238 175.041 113.637C173.978 114.035 172.787 114.234 171.466 114.234C170.13 114.234 168.943 113.914 167.904 113.273C166.865 112.633 166.06 111.727 165.49 110.555C164.92 109.383 164.63 108.039 164.623 106.523V104.367C164.623 102 165.22 100.133 166.416 98.7656C167.611 97.3906 169.216 96.7031 171.232 96.7031C172.99 96.7031 174.404 97.1523 175.474 98.0508C176.545 98.9414 177.181 100.172 177.384 101.742H175.943C175.732 100.492 175.22 99.5469 174.408 98.9062C173.603 98.2578 172.548 97.9336 171.244 97.9336C169.65 97.9336 168.388 98.5 167.459 99.6328C166.529 100.766 166.064 102.363 166.064 104.426V106.441C166.064 107.738 166.283 108.887 166.72 109.887C167.166 110.879 167.798 111.648 168.619 112.195C169.447 112.742 170.396 113.016 171.466 113.016C172.709 113.016 173.775 112.82 174.666 112.43C175.244 112.172 175.673 111.871 175.955 111.527V107.121H171.373V105.902H177.396V111.973Z" fill="white"/>
<path d="M2.15625 192V174.938H7.19531C9.02344 174.938 10.4102 175.316 11.3555 176.074C12.3008 176.824 12.7734 177.934 12.7734 179.402C12.7734 180.285 12.5312 181.055 12.0469 181.711C11.5703 182.359 10.9141 182.824 10.0781 183.105C11.0703 183.324 11.8672 183.812 12.4688 184.57C13.0781 185.328 13.3828 186.203 13.3828 187.195C13.3828 188.703 12.8945 189.883 11.918 190.734C10.9492 191.578 9.59766 192 7.86328 192H2.15625ZM3.59766 183.797V190.781H7.92188C9.15625 190.781 10.1328 190.469 10.8516 189.844C11.5781 189.211 11.9414 188.336 11.9414 187.219C11.9414 186.164 11.5938 185.332 10.8984 184.723C10.2109 184.105 9.25781 183.797 8.03906 183.797H3.59766ZM3.59766 182.59H7.53516C8.73828 182.566 9.66797 182.285 10.3242 181.746C10.9883 181.199 11.3203 180.406 11.3203 179.367C11.3203 178.273 10.9766 177.469 10.2891 176.953C9.60938 176.43 8.57812 176.168 7.19531 176.168H3.59766V182.59ZM20.5172 192H19.1109V174H20.5172V192ZM34.8937 190.395C34.05 191.621 32.7023 192.234 30.8508 192.234C29.4992 192.234 28.4719 191.844 27.7687 191.062C27.0656 190.273 26.7062 189.109 26.6906 187.57V179.32H28.0852V187.395C28.0852 189.809 29.0617 191.016 31.0148 191.016C33.0461 191.016 34.3312 190.176 34.8703 188.496V179.32H36.2766V192H34.9172L34.8937 190.395ZM47.243 192.234C46.1648 192.234 45.1883 191.969 44.3133 191.438C43.4461 190.906 42.7703 190.168 42.2859 189.223C41.8016 188.27 41.5594 187.203 41.5594 186.023V185.52C41.5594 184.301 41.7938 183.203 42.2625 182.227C42.7391 181.25 43.3992 180.484 44.243 179.93C45.0867 179.367 46.0008 179.086 46.9852 179.086C48.5242 179.086 49.743 179.613 50.6414 180.668C51.5477 181.715 52.0008 183.148 52.0008 184.969V185.754H42.9539V186.023C42.9539 187.461 43.3641 188.66 44.1844 189.621C45.0125 190.574 46.0516 191.051 47.3016 191.051C48.0516 191.051 48.7117 190.914 49.282 190.641C49.8602 190.367 50.3836 189.93 50.8523 189.328L51.7313 189.996C50.7 191.488 49.2039 192.234 47.243 192.234ZM46.9852 180.281C45.9305 180.281 45.0398 180.668 44.3133 181.441C43.5945 182.215 43.157 183.254 43.0008 184.559H50.6063V184.406C50.5672 183.188 50.2195 182.195 49.5633 181.43C48.907 180.664 48.0477 180.281 46.9852 180.281ZM59.3109 176.074V179.32H61.9359V180.469H59.3109V188.918C59.3109 189.621 59.4359 190.145 59.6859 190.488C59.9437 190.832 60.3695 191.004 60.9633 191.004C61.1977 191.004 61.5766 190.965 62.1 190.887L62.1586 192.035C61.7914 192.168 61.2914 192.234 60.6586 192.234C59.6977 192.234 58.9984 191.957 58.5609 191.402C58.1234 190.84 57.9047 190.016 57.9047 188.93V180.469H55.5727V179.32H57.9047V176.074H59.3109ZM66.2344 185.473C66.2344 184.254 66.4688 183.156 66.9375 182.18C67.4141 181.203 68.082 180.445 68.9414 179.906C69.8086 179.359 70.7891 179.086 71.8828 179.086C73.5703 179.086 74.9375 179.68 75.9844 180.867C77.0312 182.047 77.5547 183.613 77.5547 185.566V185.859C77.5547 187.086 77.3164 188.191 76.8398 189.176C76.3711 190.152 75.707 190.906 74.8477 191.438C73.9883 191.969 73.0078 192.234 71.9062 192.234C70.2266 192.234 68.8594 191.645 67.8047 190.465C66.7578 189.277 66.2344 187.707 66.2344 185.754V185.473ZM67.6406 185.859C67.6406 187.375 68.0312 188.621 68.8125 189.598C69.6016 190.566 70.6328 191.051 71.9062 191.051C73.1719 191.051 74.1953 190.566 74.9766 189.598C75.7656 188.621 76.1602 187.336 76.1602 185.742V185.473C76.1602 184.504 75.9805 183.617 75.6211 182.812C75.2617 182.008 74.7578 181.387 74.1094 180.949C73.4609 180.504 72.7188 180.281 71.8828 180.281C70.6328 180.281 69.6133 180.773 68.8242 181.758C68.0352 182.734 67.6406 184.016 67.6406 185.602V185.859ZM82.0875 185.473C82.0875 184.254 82.3219 183.156 82.7906 182.18C83.2672 181.203 83.9352 180.445 84.7945 179.906C85.6617 179.359 86.6422 179.086 87.7359 179.086C89.4234 179.086 90.7906 179.68 91.8375 180.867C92.8844 182.047 93.4078 183.613 93.4078 185.566V185.859C93.4078 187.086 93.1695 188.191 92.693 189.176C92.2242 190.152 91.5602 190.906 90.7008 191.438C89.8414 191.969 88.8609 192.234 87.7594 192.234C86.0797 192.234 84.7125 191.645 83.6578 190.465C82.6109 189.277 82.0875 187.707 82.0875 185.754V185.473ZM83.4938 185.859C83.4938 187.375 83.8844 188.621 84.6656 189.598C85.4547 190.566 86.4859 191.051 87.7594 191.051C89.025 191.051 90.0484 190.566 90.8297 189.598C91.6188 188.621 92.0133 187.336 92.0133 185.742V185.473C92.0133 184.504 91.8336 183.617 91.4742 182.812C91.1148 182.008 90.6109 181.387 89.9625 180.949C89.3141 180.504 88.5719 180.281 87.7359 180.281C86.4859 180.281 85.4664 180.773 84.6773 181.758C83.8883 182.734 83.4938 184.016 83.4938 185.602V185.859ZM100.894 176.074V179.32H103.519V180.469H100.894V188.918C100.894 189.621 101.019 190.145 101.269 190.488C101.527 190.832 101.952 191.004 102.546 191.004C102.78 191.004 103.159 190.965 103.683 190.887L103.741 192.035C103.374 192.168 102.874 192.234 102.241 192.234C101.28 192.234 100.581 191.957 100.144 191.402C99.7063 190.84 99.4875 190.016 99.4875 188.93V180.469H97.1555V179.32H99.4875V176.074H100.894ZM110.22 181.465C110.68 180.707 111.27 180.121 111.989 179.707C112.708 179.293 113.493 179.086 114.345 179.086C115.704 179.086 116.716 179.469 117.38 180.234C118.044 181 118.38 182.148 118.387 183.68V192H116.993V183.668C116.985 182.535 116.743 181.691 116.266 181.137C115.798 180.582 115.044 180.305 114.005 180.305C113.137 180.305 112.368 180.578 111.696 181.125C111.032 181.664 110.54 182.395 110.22 183.316V192H108.825V174H110.22V181.465Z" fill="white"/>
<path d="M14.8594 280H13.418L3.60938 265.398V280H2.15625V262.938H3.60938L13.4297 277.551V262.938H14.8594V280ZM30.9937 272.031H23.0367V280H21.5953V262.938H32.1656V264.168H23.0367V270.801H30.9937V272.031ZM49.5773 274.68C49.382 276.477 48.7375 277.852 47.6437 278.805C46.5578 279.758 45.1086 280.234 43.2961 280.234C42.0305 280.234 40.9094 279.918 39.9328 279.285C38.9641 278.652 38.2141 277.758 37.6828 276.602C37.1516 275.438 36.882 274.109 36.8742 272.617V270.402C36.8742 268.887 37.1398 267.543 37.6711 266.371C38.2023 265.199 38.9641 264.297 39.9562 263.664C40.9562 263.023 42.1047 262.703 43.4016 262.703C45.2297 262.703 46.6711 263.199 47.7258 264.191C48.7883 265.176 49.4055 266.539 49.5773 268.281H48.1242C47.7648 265.383 46.1906 263.934 43.4016 263.934C41.8547 263.934 40.6203 264.512 39.6984 265.668C38.7844 266.824 38.3273 268.422 38.3273 270.461V272.547C38.3273 274.516 38.7727 276.086 39.6633 277.258C40.5617 278.43 41.7727 279.016 43.2961 279.016C44.8039 279.016 45.9406 278.656 46.7062 277.938C47.4719 277.211 47.9445 276.125 48.1242 274.68H49.5773Z" fill="white"/>
<path d="M5.30859 353.395L5.83594 356.043L6.48047 353.512L10.1836 340.938H11.4844L15.1406 353.512L15.7734 356.066L16.3359 353.395L19.418 340.938H20.8945L16.5234 358H15.1406L11.2734 344.652L10.8398 342.965L10.418 344.652L6.45703 358H5.07422L0.714844 340.938H2.19141L5.30859 353.395ZM27.3141 358H25.9078V345.32H27.3141V358ZM25.6617 341.652C25.6617 341.387 25.7477 341.164 25.9195 340.984C26.0914 340.797 26.3258 340.703 26.6227 340.703C26.9195 340.703 27.1539 340.797 27.3258 340.984C27.5055 341.164 27.5953 341.387 27.5953 341.652C27.5953 341.918 27.5055 342.141 27.3258 342.32C27.1539 342.5 26.9195 342.59 26.6227 342.59C26.3258 342.59 26.0914 342.5 25.9195 342.32C25.7477 342.141 25.6617 341.918 25.6617 341.652ZM39.3937 346.516C39.0969 346.461 38.7805 346.434 38.4445 346.434C37.5695 346.434 36.8273 346.68 36.218 347.172C35.6164 347.656 35.1867 348.363 34.9289 349.293V358H33.5344V345.32H34.9055L34.9289 347.336C35.6711 345.836 36.8625 345.086 38.5031 345.086C38.8937 345.086 39.2023 345.137 39.4289 345.238L39.3937 346.516ZM48.6961 358.234C47.618 358.234 46.6414 357.969 45.7664 357.438C44.8992 356.906 44.2234 356.168 43.7391 355.223C43.2547 354.27 43.0125 353.203 43.0125 352.023V351.52C43.0125 350.301 43.2469 349.203 43.7156 348.227C44.1922 347.25 44.8523 346.484 45.6961 345.93C46.5398 345.367 47.4539 345.086 48.4383 345.086C49.9773 345.086 51.1961 345.613 52.0945 346.668C53.0008 347.715 53.4539 349.148 53.4539 350.969V351.754H44.407V352.023C44.407 353.461 44.8172 354.66 45.6375 355.621C46.4656 356.574 47.5047 357.051 48.7547 357.051C49.5047 357.051 50.1648 356.914 50.7352 356.641C51.3133 356.367 51.8367 355.93 52.3055 355.328L53.1844 355.996C52.1531 357.488 50.657 358.234 48.6961 358.234ZM48.4383 346.281C47.3836 346.281 46.493 346.668 45.7664 347.441C45.0477 348.215 44.6102 349.254 44.4539 350.559H52.0594V350.406C52.0203 349.188 51.6727 348.195 51.0164 347.43C50.3602 346.664 49.5008 346.281 48.4383 346.281ZM60.1547 358H58.7484V340H60.1547V358ZM71.2852 358.234C70.207 358.234 69.2305 357.969 68.3555 357.438C67.4883 356.906 66.8125 356.168 66.3281 355.223C65.8438 354.27 65.6016 353.203 65.6016 352.023V351.52C65.6016 350.301 65.8359 349.203 66.3047 348.227C66.7812 347.25 67.4414 346.484 68.2852 345.93C69.1289 345.367 70.043 345.086 71.0273 345.086C72.5664 345.086 73.7852 345.613 74.6836 346.668C75.5898 347.715 76.043 349.148 76.043 350.969V351.754H66.9961V352.023C66.9961 353.461 67.4062 354.66 68.2266 355.621C69.0547 356.574 70.0938 357.051 71.3438 357.051C72.0938 357.051 72.7539 356.914 73.3242 356.641C73.9023 356.367 74.4258 355.93 74.8945 355.328L75.7734 355.996C74.7422 357.488 73.2461 358.234 71.2852 358.234ZM71.0273 346.281C69.9727 346.281 69.082 346.668 68.3555 347.441C67.6367 348.215 67.1992 349.254 67.043 350.559H74.6484V350.406C74.6094 349.188 74.2617 348.195 73.6055 347.43C72.9492 346.664 72.0898 346.281 71.0273 346.281ZM88.7672 354.777C88.7672 354.082 88.4859 353.523 87.9234 353.102C87.3688 352.68 86.5289 352.352 85.4039 352.117C84.2789 351.875 83.4039 351.602 82.7789 351.297C82.1617 350.984 81.7008 350.605 81.3961 350.16C81.0992 349.715 80.9508 349.176 80.9508 348.543C80.9508 347.543 81.3688 346.719 82.2047 346.07C83.0406 345.414 84.1109 345.086 85.4156 345.086C86.8297 345.086 87.9625 345.438 88.8141 346.141C89.6734 346.836 90.1031 347.746 90.1031 348.871H88.6969C88.6969 348.129 88.3844 347.512 87.7594 347.02C87.1422 346.527 86.3609 346.281 85.4156 346.281C84.4938 346.281 83.7516 346.488 83.1891 346.902C82.6344 347.309 82.357 347.84 82.357 348.496C82.357 349.129 82.5875 349.621 83.0484 349.973C83.5172 350.316 84.3648 350.633 85.5914 350.922C86.8258 351.211 87.7477 351.52 88.357 351.848C88.9742 352.176 89.4313 352.57 89.7281 353.031C90.025 353.492 90.1734 354.051 90.1734 354.707C90.1734 355.777 89.7398 356.633 88.8727 357.273C88.0133 357.914 86.8883 358.234 85.4977 358.234C84.0211 358.234 82.8219 357.879 81.9 357.168C80.9859 356.449 80.5289 355.543 80.5289 354.449H81.9352C81.9898 355.27 82.3336 355.91 82.9664 356.371C83.607 356.824 84.4508 357.051 85.4977 357.051C86.4742 357.051 87.2633 356.836 87.8648 356.406C88.4664 355.977 88.7672 355.434 88.7672 354.777ZM103.331 354.777C103.331 354.082 103.05 353.523 102.488 353.102C101.933 352.68 101.093 352.352 99.968 352.117C98.843 351.875 97.968 351.602 97.343 351.297C96.7258 350.984 96.2648 350.605 95.9602 350.16C95.6633 349.715 95.5148 349.176 95.5148 348.543C95.5148 347.543 95.9328 346.719 96.7688 346.07C97.6047 345.414 98.675 345.086 99.9797 345.086C101.394 345.086 102.527 345.438 103.378 346.141C104.238 346.836 104.667 347.746 104.667 348.871H103.261C103.261 348.129 102.948 347.512 102.323 347.02C101.706 346.527 100.925 346.281 99.9797 346.281C99.0578 346.281 98.3156 346.488 97.7531 346.902C97.1984 347.309 96.9211 347.84 96.9211 348.496C96.9211 349.129 97.1516 349.621 97.6125 349.973C98.0813 350.316 98.9289 350.633 100.155 350.922C101.39 351.211 102.312 351.52 102.921 351.848C103.538 352.176 103.995 352.57 104.292 353.031C104.589 353.492 104.738 354.051 104.738 354.707C104.738 355.777 104.304 356.633 103.437 357.273C102.577 357.914 101.452 358.234 100.062 358.234C98.5852 358.234 97.3859 357.879 96.4641 357.168C95.55 356.449 95.093 355.543 95.093 354.449H96.4992C96.5539 355.27 96.8977 355.91 97.5305 356.371C98.1711 356.824 99.0148 357.051 100.062 357.051C101.038 357.051 101.827 356.836 102.429 356.406C103.03 355.977 103.331 355.434 103.331 354.777ZM120.307 351.051V358H118.866V340.938H124.678C126.452 340.938 127.85 341.391 128.873 342.297C129.905 343.203 130.42 344.449 130.42 346.035C130.42 347.637 129.924 348.875 128.932 349.75C127.948 350.617 126.518 351.051 124.643 351.051H120.307ZM120.307 349.832H124.678C126.077 349.832 127.143 349.5 127.877 348.836C128.612 348.172 128.979 347.246 128.979 346.059C128.979 344.879 128.612 343.941 127.877 343.246C127.151 342.543 126.116 342.184 124.772 342.168H120.307V349.832ZM141.586 346.516C141.289 346.461 140.973 346.434 140.637 346.434C139.762 346.434 139.02 346.68 138.41 347.172C137.809 347.656 137.379 348.363 137.121 349.293V358H135.727V345.32H137.098L137.121 347.336C137.863 345.836 139.055 345.086 140.695 345.086C141.086 345.086 141.395 345.137 141.621 345.238L141.586 346.516ZM145.205 351.473C145.205 350.254 145.439 349.156 145.908 348.18C146.384 347.203 147.052 346.445 147.912 345.906C148.779 345.359 149.759 345.086 150.853 345.086C152.541 345.086 153.908 345.68 154.955 346.867C156.002 348.047 156.525 349.613 156.525 351.566V351.859C156.525 353.086 156.287 354.191 155.81 355.176C155.341 356.152 154.677 356.906 153.818 357.438C152.959 357.969 151.978 358.234 150.877 358.234C149.197 358.234 147.83 357.645 146.775 356.465C145.728 355.277 145.205 353.707 145.205 351.754V351.473ZM146.611 351.859C146.611 353.375 147.002 354.621 147.783 355.598C148.572 356.566 149.603 357.051 150.877 357.051C152.142 357.051 153.166 356.566 153.947 355.598C154.736 354.621 155.13 353.336 155.13 351.742V351.473C155.13 350.504 154.951 349.617 154.591 348.812C154.232 348.008 153.728 347.387 153.08 346.949C152.431 346.504 151.689 346.281 150.853 346.281C149.603 346.281 148.584 346.773 147.795 347.758C147.005 348.734 146.611 350.016 146.611 351.602V351.859ZM163.343 345.32V359.512C163.343 360.684 163.062 361.578 162.499 362.195C161.937 362.812 161.109 363.121 160.015 363.121C159.593 363.121 159.183 363.047 158.784 362.898L158.808 361.738C159.152 361.84 159.503 361.891 159.863 361.891C161.253 361.891 161.948 361.09 161.948 359.488V345.32H163.343ZM162.652 340.703C162.956 340.703 163.195 340.797 163.366 340.984C163.538 341.164 163.624 341.387 163.624 341.652C163.624 341.918 163.538 342.141 163.366 342.32C163.195 342.5 162.956 342.59 162.652 342.59C162.355 342.59 162.12 342.5 161.948 342.32C161.784 342.141 161.702 341.918 161.702 341.652C161.702 341.387 161.784 341.164 161.948 340.984C162.12 340.797 162.355 340.703 162.652 340.703ZM174.626 358.234C173.548 358.234 172.571 357.969 171.696 357.438C170.829 356.906 170.153 356.168 169.669 355.223C169.184 354.27 168.942 353.203 168.942 352.023V351.52C168.942 350.301 169.177 349.203 169.645 348.227C170.122 347.25 170.782 346.484 171.626 345.93C172.47 345.367 173.384 345.086 174.368 345.086C175.907 345.086 177.126 345.613 178.024 346.668C178.93 347.715 179.384 349.148 179.384 350.969V351.754H170.337V352.023C170.337 353.461 170.747 354.66 171.567 355.621C172.395 356.574 173.434 357.051 174.684 357.051C175.434 357.051 176.095 356.914 176.665 356.641C177.243 356.367 177.766 355.93 178.235 355.328L179.114 355.996C178.083 357.488 176.587 358.234 174.626 358.234ZM174.368 346.281C173.313 346.281 172.423 346.668 171.696 347.441C170.977 348.215 170.54 349.254 170.384 350.559H177.989V350.406C177.95 349.188 177.602 348.195 176.946 347.43C176.29 346.664 175.43 346.281 174.368 346.281ZM189.202 357.051C190.178 357.051 190.995 356.777 191.651 356.23C192.315 355.676 192.674 354.961 192.729 354.086H194.077C194.038 354.859 193.795 355.566 193.35 356.207C192.905 356.84 192.311 357.336 191.569 357.695C190.834 358.055 190.045 358.234 189.202 358.234C187.538 358.234 186.217 357.656 185.241 356.5C184.272 355.344 183.788 353.789 183.788 351.836V351.414C183.788 350.164 184.006 349.059 184.444 348.098C184.881 347.137 185.506 346.395 186.319 345.871C187.139 345.348 188.096 345.086 189.19 345.086C190.58 345.086 191.725 345.5 192.623 346.328C193.53 347.156 194.014 348.246 194.077 349.598H192.729C192.666 348.605 192.307 347.805 191.651 347.195C191.002 346.586 190.182 346.281 189.19 346.281C187.924 346.281 186.94 346.738 186.237 347.652C185.541 348.566 185.194 349.848 185.194 351.496V351.906C185.194 353.523 185.541 354.785 186.237 355.691C186.94 356.598 187.928 357.051 189.202 357.051ZM201.469 342.074V345.32H204.094V346.469H201.469V354.918C201.469 355.621 201.594 356.145 201.844 356.488C202.102 356.832 202.527 357.004 203.121 357.004C203.355 357.004 203.734 356.965 204.258 356.887L204.316 358.035C203.949 358.168 203.449 358.234 202.816 358.234C201.855 358.234 201.156 357.957 200.719 357.402C200.281 356.84 200.062 356.016 200.062 354.93V346.469H197.73V345.32H200.062V342.074H201.469ZM210.97 358H209.564V345.32H210.97V358ZM209.318 341.652C209.318 341.387 209.404 341.164 209.576 340.984C209.748 340.797 209.982 340.703 210.279 340.703C210.576 340.703 210.81 340.797 210.982 340.984C211.162 341.164 211.252 341.387 211.252 341.652C211.252 341.918 211.162 342.141 210.982 342.32C210.81 342.5 210.576 342.59 210.279 342.59C209.982 342.59 209.748 342.5 209.576 342.32C209.404 342.141 209.318 341.918 209.318 341.652ZM216.417 351.473C216.417 350.254 216.652 349.156 217.12 348.18C217.597 347.203 218.265 346.445 219.124 345.906C219.991 345.359 220.972 345.086 222.066 345.086C223.753 345.086 225.12 345.68 226.167 346.867C227.214 348.047 227.738 349.613 227.738 351.566V351.859C227.738 353.086 227.499 354.191 227.023 355.176C226.554 356.152 225.89 356.906 225.03 357.438C224.171 357.969 223.191 358.234 222.089 358.234C220.409 358.234 219.042 357.645 217.988 356.465C216.941 355.277 216.417 353.707 216.417 351.754V351.473ZM217.823 351.859C217.823 353.375 218.214 354.621 218.995 355.598C219.784 356.566 220.816 357.051 222.089 357.051C223.355 357.051 224.378 356.566 225.159 355.598C225.948 354.621 226.343 353.336 226.343 351.742V351.473C226.343 350.504 226.163 349.617 225.804 348.812C225.445 348.008 224.941 347.387 224.292 346.949C223.644 346.504 222.902 346.281 222.066 346.281C220.816 346.281 219.796 346.773 219.007 347.758C218.218 348.734 217.823 350.016 217.823 351.602V351.859ZM234.38 345.32L234.427 347.488C234.903 346.707 235.497 346.113 236.208 345.707C236.919 345.293 237.704 345.086 238.563 345.086C239.923 345.086 240.934 345.469 241.598 346.234C242.262 347 242.598 348.148 242.606 349.68V358H241.212V349.668C241.204 348.535 240.962 347.691 240.485 347.137C240.016 346.582 239.262 346.305 238.223 346.305C237.356 346.305 236.587 346.578 235.915 347.125C235.251 347.664 234.759 348.395 234.438 349.316V358H233.044V345.32H234.38Z" fill="white"/>
<path d="M11.8125 431.805C11.8125 430.859 11.4805 430.113 10.8164 429.566C10.1523 429.012 8.9375 428.488 7.17188 427.996C5.40625 427.496 4.11719 426.953 3.30469 426.367C2.14844 425.539 1.57031 424.453 1.57031 423.109C1.57031 421.805 2.10547 420.746 3.17578 419.934C4.25391 419.113 5.62891 418.703 7.30078 418.703C8.43359 418.703 9.44531 418.922 10.3359 419.359C11.2344 419.797 11.9297 420.406 12.4219 421.188C12.9141 421.969 13.1602 422.84 13.1602 423.801H11.707C11.707 422.637 11.3086 421.703 10.5117 421C9.71484 420.289 8.64453 419.934 7.30078 419.934C5.99609 419.934 4.95703 420.227 4.18359 420.812C3.41016 421.391 3.02344 422.148 3.02344 423.086C3.02344 423.953 3.37109 424.66 4.06641 425.207C4.76172 425.754 5.875 426.238 7.40625 426.66C8.9375 427.074 10.0977 427.508 10.8867 427.961C11.6758 428.406 12.2695 428.941 12.668 429.566C13.0664 430.191 13.2656 430.93 13.2656 431.781C13.2656 433.125 12.7266 434.203 11.6484 435.016C10.5781 435.828 9.16406 436.234 7.40625 436.234C6.20312 436.234 5.09766 436.02 4.08984 435.59C3.08984 435.16 2.32812 434.559 1.80469 433.785C1.28906 433.012 1.03125 432.125 1.03125 431.125H2.47266C2.47266 432.328 2.92188 433.277 3.82031 433.973C4.71875 434.668 5.91406 435.016 7.40625 435.016C8.73438 435.016 9.80078 434.723 10.6055 434.137C11.4102 433.551 11.8125 432.773 11.8125 431.805ZM20.6344 420.074V423.32H23.2594V424.469H20.6344V432.918C20.6344 433.621 20.7594 434.145 21.0094 434.488C21.2672 434.832 21.693 435.004 22.2867 435.004C22.5211 435.004 22.9 434.965 23.4234 434.887L23.482 436.035C23.1148 436.168 22.6148 436.234 21.982 436.234C21.0211 436.234 20.3219 435.957 19.8844 435.402C19.4469 434.84 19.2281 434.016 19.2281 432.93V424.469H16.8961V423.32H19.2281V420.074H20.6344ZM32.5852 433.984L36.2883 423.32H37.8L32.3859 438.156L32.1047 438.812C31.4094 440.352 30.3352 441.121 28.882 441.121C28.5461 441.121 28.1867 441.066 27.8039 440.957L27.7922 439.797L28.5187 439.867C29.2062 439.867 29.7609 439.695 30.1828 439.352C30.6125 439.016 30.9758 438.434 31.2727 437.605L31.8937 435.895L27.1125 423.32H28.6477L32.5852 433.984ZM43.95 436H42.5438V418H43.95V436ZM58.3266 434.395C57.4828 435.621 56.1352 436.234 54.2836 436.234C52.932 436.234 51.9047 435.844 51.2016 435.062C50.4984 434.273 50.1391 433.109 50.1234 431.57V423.32H51.518V431.395C51.518 433.809 52.4945 435.016 54.4477 435.016C56.4789 435.016 57.7641 434.176 58.3031 432.496V423.32H59.7094V436H58.35L58.3266 434.395ZM73.3594 432.777C73.3594 432.082 73.0781 431.523 72.5156 431.102C71.9609 430.68 71.1211 430.352 69.9961 430.117C68.8711 429.875 67.9961 429.602 67.3711 429.297C66.7539 428.984 66.293 428.605 65.9883 428.16C65.6914 427.715 65.543 427.176 65.543 426.543C65.543 425.543 65.9609 424.719 66.7969 424.07C67.6328 423.414 68.7031 423.086 70.0078 423.086C71.4219 423.086 72.5547 423.438 73.4062 424.141C74.2656 424.836 74.6953 425.746 74.6953 426.871H73.2891C73.2891 426.129 72.9766 425.512 72.3516 425.02C71.7344 424.527 70.9531 424.281 70.0078 424.281C69.0859 424.281 68.3438 424.488 67.7812 424.902C67.2266 425.309 66.9492 425.84 66.9492 426.496C66.9492 427.129 67.1797 427.621 67.6406 427.973C68.1094 428.316 68.957 428.633 70.1836 428.922C71.418 429.211 72.3398 429.52 72.9492 429.848C73.5664 430.176 74.0234 430.57 74.3203 431.031C74.6172 431.492 74.7656 432.051 74.7656 432.707C74.7656 433.777 74.332 434.633 73.4648 435.273C72.6055 435.914 71.4805 436.234 70.0898 436.234C68.6133 436.234 67.4141 435.879 66.4922 435.168C65.5781 434.449 65.1211 433.543 65.1211 432.449H66.5273C66.582 433.27 66.9258 433.91 67.5586 434.371C68.1992 434.824 69.043 435.051 70.0898 435.051C71.0664 435.051 71.8555 434.836 72.457 434.406C73.0586 433.977 73.3594 433.434 73.3594 432.777ZM90.3352 429.051V436H88.8938V418.938H94.7063C96.4797 418.938 97.8781 419.391 98.9016 420.297C99.9328 421.203 100.448 422.449 100.448 424.035C100.448 425.637 99.9523 426.875 98.9602 427.75C97.9758 428.617 96.5461 429.051 94.6711 429.051H90.3352ZM90.3352 427.832H94.7063C96.1047 427.832 97.1711 427.5 97.9055 426.836C98.6398 426.172 99.007 425.246 99.007 424.059C99.007 422.879 98.6398 421.941 97.9055 421.246C97.1789 420.543 96.1438 420.184 94.8 420.168H90.3352V427.832ZM110.501 436.234C109.423 436.234 108.446 435.969 107.571 435.438C106.704 434.906 106.028 434.168 105.544 433.223C105.059 432.27 104.817 431.203 104.817 430.023V429.52C104.817 428.301 105.052 427.203 105.52 426.227C105.997 425.25 106.657 424.484 107.501 423.93C108.345 423.367 109.259 423.086 110.243 423.086C111.782 423.086 113.001 423.613 113.899 424.668C114.805 425.715 115.259 427.148 115.259 428.969V429.754H106.212V430.023C106.212 431.461 106.622 432.66 107.442 433.621C108.27 434.574 109.309 435.051 110.559 435.051C111.309 435.051 111.97 434.914 112.54 434.641C113.118 434.367 113.641 433.93 114.11 433.328L114.989 433.996C113.958 435.488 112.462 436.234 110.501 436.234ZM110.243 424.281C109.188 424.281 108.298 424.668 107.571 425.441C106.852 426.215 106.415 427.254 106.259 428.559H113.864V428.406C113.825 427.188 113.477 426.195 112.821 425.43C112.165 424.664 111.305 424.281 110.243 424.281ZM121.725 423.32L121.772 425.488C122.248 424.707 122.842 424.113 123.553 423.707C124.264 423.293 125.049 423.086 125.909 423.086C127.268 423.086 128.28 423.469 128.944 424.234C129.608 425 129.944 426.148 129.952 427.68V436H128.557V427.668C128.549 426.535 128.307 425.691 127.83 425.137C127.362 424.582 126.608 424.305 125.569 424.305C124.702 424.305 123.932 424.578 123.26 425.125C122.596 425.664 122.104 426.395 121.784 427.316V436H120.389V423.32H121.725Z" fill="white"/>
<path d="M502 427.032L511.902 442L531 413" stroke="white" stroke-width="3"/>
<line y1="450.5" x2="553" y2="450.5" stroke="#B8B7BC"/>
<line y1="128.5" x2="553" y2="128.5" stroke="#B8B7BC"/>
<line y1="372.5" x2="553" y2="372.5" stroke="#B8B7BC"/>
<line y1="294.5" x2="553" y2="294.5" stroke="#B8B7BC"/>
<line y1="45.5" x2="553" y2="45.5" stroke="#B8B7BC"/>
<line y1="206.5" x2="553" y2="206.5" stroke="#B8B7BC"/>
<path d="M502 23.0323L511.902 38L531 9" stroke="white" stroke-width="3"/>
<path d="M502 108.032L511.902 123L531 94" stroke="white" stroke-width="3"/>
<path d="M502 185.032L511.902 200L531 171" stroke="white" stroke-width="3"/>
<path d="M502 270.032L511.902 285L531 256" stroke="white" stroke-width="3"/>
<path d="M502 349.032L511.902 364L531 335" stroke="white" stroke-width="3"/>
</svg>
