<svg width="292" height="28" viewBox="0 0 292 28" fill="none" xmlns="http://www.w3.org/2000/svg">
<path d="M15.3857 0.440001H18.2657L3.02568 26.72H0.19901L15.3857 0.440001ZM35.3676 19.8667L37.5942 19.0667C37.7631 19.0133 37.9009 18.9378 38.0076 18.84C38.1231 18.7422 38.2031 18.5956 38.2476 18.4L41.4342 4.04H37.6476C37.4965 4.04 37.3631 4.08889 37.2476 4.18667C37.1409 4.27556 37.0476 4.39111 36.9676 4.53333L35.5542 7.41333H33.7942L35.0342 1.88H53.0876L51.8476 7.41333H50.0742L49.9542 4.53333C49.9542 4.37333 49.9142 4.25333 49.8342 4.17333C49.7542 4.08444 49.6431 4.04 49.5009 4.04H45.7809L42.6076 18.4C42.5631 18.5956 42.5809 18.7467 42.6609 18.8533C42.7409 18.9511 42.8476 19.0222 42.9809 19.0667L45.1542 19.8667L44.9009 21H35.1276L35.3676 19.8667ZM60.3206 21.3067C59.9206 21.3067 59.4939 21.2578 59.0406 21.16C58.5872 21.0711 58.1339 20.9289 57.6806 20.7333C57.2361 20.5289 56.8095 20.2711 56.4006 19.96C55.9917 19.6489 55.6272 19.2711 55.3072 18.8267C54.9961 18.3733 54.7472 17.8533 54.5606 17.2667C54.3739 16.6711 54.2806 16 54.2806 15.2533C54.2806 14.4622 54.3784 13.6889 54.5739 12.9333C54.7695 12.1778 55.0539 11.4667 55.4272 10.8C55.8006 10.1333 56.2539 9.52 56.7872 8.96C57.3206 8.4 57.9206 7.92 58.5872 7.52C59.2539 7.12 59.9872 6.80889 60.7872 6.58667C61.5872 6.36444 62.4317 6.25333 63.3206 6.25333C63.8717 6.25333 64.4361 6.31556 65.0139 6.44C65.5917 6.55556 66.1206 6.74667 66.6006 7.01333C67.0806 7.28 67.4717 7.62667 67.7739 8.05333C68.085 8.48 68.2406 9.00889 68.2406 9.64C68.2406 10.2267 68.1339 10.7556 67.9206 11.2267C67.7072 11.6978 67.4139 12.1156 67.0406 12.48C66.6672 12.8356 66.2317 13.1378 65.7339 13.3867C65.2361 13.6356 64.7028 13.84 64.1339 14C63.5739 14.1511 62.9872 14.2622 62.3739 14.3333C61.7695 14.4044 61.1784 14.44 60.6006 14.44C60.2006 14.44 59.8317 14.4311 59.4939 14.4133C59.1561 14.3956 58.8539 14.3689 58.5872 14.3333C58.5872 14.4222 58.5828 14.5111 58.5739 14.6C58.565 14.68 58.5606 14.7689 58.5606 14.8667C58.5428 15.4711 58.605 16.0133 58.7472 16.4933C58.8984 16.9733 59.1206 17.3822 59.4139 17.72C59.7161 18.0578 60.0939 18.3156 60.5472 18.4933C61.0006 18.6711 61.5295 18.76 62.1339 18.76C62.6761 18.76 63.1828 18.7156 63.6539 18.6267C64.125 18.5289 64.5561 18.4089 64.9472 18.2667C65.3472 18.1156 65.7117 17.9556 66.0406 17.7867C66.3695 17.6178 66.6584 17.4578 66.9072 17.3067H67.5739L67.5072 19.04C67.0806 19.3422 66.6095 19.6311 66.0939 19.9067C65.5784 20.1822 65.0184 20.4267 64.4139 20.64C63.8095 20.8444 63.165 21.0044 62.4806 21.12C61.7961 21.2444 61.0761 21.3067 60.3206 21.3067ZM60.2406 12.8933C60.7739 12.8933 61.2717 12.84 61.7339 12.7333C62.1961 12.6178 62.5917 12.4356 62.9206 12.1867C63.2584 11.9289 63.525 11.5956 63.7206 11.1867C63.9161 10.7778 64.0139 10.2711 64.0139 9.66667C64.0139 9.16 63.8672 8.76889 63.5739 8.49333C63.2895 8.21778 62.9206 8.08 62.4672 8.08C62.2361 8.08 62.0095 8.12444 61.7872 8.21333C61.565 8.29333 61.3517 8.40444 61.1472 8.54667C60.8717 8.75111 60.6095 9.00444 60.3606 9.30667C60.1206 9.6 59.8984 9.92889 59.6939 10.2933C59.4984 10.6578 59.325 11.0578 59.1739 11.4933C59.0317 11.9289 58.9161 12.3778 58.8272 12.84C59.0406 12.8578 59.2717 12.8711 59.5206 12.88C59.7784 12.8889 60.0184 12.8933 60.2406 12.8933ZM76.0798 21.2667C75.4932 21.2667 74.9643 21.1644 74.4932 20.96C74.0221 20.7556 73.6221 20.4844 73.2932 20.1467C72.9732 19.8 72.7243 19.4 72.5465 18.9467C72.3776 18.4933 72.2932 18.0178 72.2932 17.52C72.2932 16.8089 72.4132 16.1778 72.6532 15.6267C72.8932 15.0756 73.2087 14.5956 73.5998 14.1867C73.9998 13.7778 74.4576 13.4356 74.9732 13.16C75.4887 12.8756 76.0265 12.6489 76.5865 12.48C77.1554 12.3022 77.7243 12.1778 78.2932 12.1067C78.871 12.0267 79.4087 11.9867 79.9065 11.9867C80.0221 11.9867 80.1998 11.9956 80.4398 12.0133C80.6798 12.0311 80.9287 12.0533 81.1865 12.08C81.4443 12.1067 81.6887 12.1333 81.9198 12.16C82.1598 12.1778 82.3332 12.1911 82.4398 12.2C82.4487 12.1644 82.4621 12.0667 82.4798 11.9067C82.5065 11.7378 82.5332 11.5511 82.5598 11.3467C82.5954 11.1333 82.6221 10.9244 82.6398 10.72C82.6665 10.5156 82.6798 10.3556 82.6798 10.24C82.6798 9.53778 82.4843 9.02667 82.0932 8.70667C81.7021 8.38667 81.1598 8.22667 80.4665 8.22667C80.1021 8.22667 79.6932 8.32 79.2398 8.50667C78.7865 8.69333 78.3287 8.92 77.8665 9.18667C77.4132 9.44444 76.9776 9.71556 76.5598 10C76.1421 10.2844 75.7954 10.5244 75.5198 10.72H74.6132L74.7598 7.37333C75.2398 7.23111 75.7198 7.09333 76.1998 6.96C76.6798 6.82667 77.1732 6.71111 77.6798 6.61333C78.1954 6.50667 78.7287 6.42667 79.2798 6.37333C79.8398 6.31111 80.4398 6.28 81.0798 6.28C81.711 6.28 82.3643 6.33778 83.0398 6.45333C83.7243 6.56889 84.351 6.76444 84.9198 7.04C85.4887 7.31556 85.9554 7.68444 86.3198 8.14667C86.6843 8.6 86.8665 9.17333 86.8665 9.86667C86.8665 10.0267 86.8576 10.2 86.8398 10.3867C86.831 10.5733 86.8132 10.7644 86.7865 10.96C86.7687 11.1556 86.7421 11.3467 86.7065 11.5333C86.6798 11.72 86.6487 11.8889 86.6132 12.04L85.8798 15.2133C85.8265 15.4533 85.7732 15.7111 85.7198 15.9867C85.6665 16.2533 85.6132 16.5156 85.5598 16.7733C85.5154 17.0222 85.4754 17.2533 85.4398 17.4667C85.4132 17.6711 85.3998 17.8311 85.3998 17.9467C85.3998 18.0889 85.4176 18.2356 85.4532 18.3867C85.4976 18.5289 85.5687 18.6622 85.6665 18.7867C85.7643 18.9022 85.8932 18.9956 86.0532 19.0667C86.2132 19.1378 86.4221 19.1733 86.6798 19.1733C86.7687 19.1733 86.8621 19.1689 86.9598 19.16C87.0665 19.1422 87.1732 19.12 87.2798 19.0933C87.3954 19.0578 87.5198 19.0178 87.6532 18.9733C87.7865 18.9289 87.9287 18.88 88.0798 18.8267H88.5598V20.2533C88.1954 20.4578 87.8132 20.6222 87.4132 20.7467C87.0132 20.8711 86.6132 20.9689 86.2132 21.04C85.8221 21.1111 85.4398 21.1556 85.0665 21.1733C84.6932 21.2 84.3643 21.2133 84.0798 21.2133C83.6176 21.2133 83.2176 21.1511 82.8798 21.0267C82.551 20.9022 82.2665 20.7378 82.0265 20.5333C81.7954 20.32 81.6132 20.0711 81.4798 19.7867C81.3465 19.5022 81.2576 19.1911 81.2132 18.8533H81.0532C80.5998 19.36 80.1554 19.7733 79.7198 20.0933C79.2932 20.4044 78.8754 20.6489 78.4665 20.8267C78.0576 20.9956 77.6532 21.1111 77.2532 21.1733C76.8532 21.2356 76.4621 21.2667 76.0798 21.2667ZM78.4532 18.8267C78.9332 18.8267 79.4221 18.7156 79.9198 18.4933C80.4176 18.2711 80.8621 17.9289 81.2532 17.4667L82.0932 13.7733C81.3376 13.7733 80.6354 13.8133 79.9865 13.8933C79.3376 13.9644 78.7732 14.1156 78.2932 14.3467C77.8132 14.5778 77.431 14.9067 77.1465 15.3333C76.871 15.7511 76.7198 16.3022 76.6932 16.9867C76.6843 17.3156 76.7287 17.5956 76.8265 17.8267C76.9243 18.0578 77.0532 18.2489 77.2132 18.4C77.3821 18.5422 77.5732 18.6489 77.7865 18.72C78.0087 18.7911 78.231 18.8267 78.4532 18.8267ZM114.424 21.2133C113.988 21.2133 113.593 21.1511 113.237 21.0267C112.89 20.9022 112.593 20.7333 112.344 20.52C112.095 20.2978 111.904 20.0356 111.77 19.7333C111.637 19.4311 111.57 19.0978 111.57 18.7333C111.57 18.4578 111.593 18.1511 111.637 17.8133C111.682 17.4756 111.748 17.1244 111.837 16.76L112.93 12.1067C112.993 11.84 113.046 11.56 113.09 11.2667C113.135 10.9644 113.157 10.7067 113.157 10.4933C113.157 9.97778 113.028 9.58667 112.77 9.32C112.522 9.05333 112.073 8.92 111.424 8.92C111.21 8.92 110.988 8.94222 110.757 8.98667C110.526 9.02222 110.29 9.08444 110.05 9.17333C109.81 9.25333 109.579 9.36444 109.357 9.50667C109.135 9.64889 108.926 9.82222 108.73 10.0267L106.904 18.2533C106.895 18.4844 106.886 18.72 106.877 18.96C106.877 19.1911 106.877 19.4222 106.877 19.6533C106.877 19.8844 106.877 20.1156 106.877 20.3467C106.877 20.5689 106.877 20.7867 106.877 21H102.157L104.13 12.1067C104.157 11.9733 104.184 11.8356 104.21 11.6933C104.246 11.5422 104.273 11.3956 104.29 11.2533C104.317 11.1022 104.335 10.9644 104.344 10.84C104.353 10.7067 104.357 10.5822 104.357 10.4667C104.357 10.2267 104.326 10.0133 104.264 9.82667C104.21 9.63111 104.117 9.46667 103.984 9.33333C103.85 9.2 103.673 9.09778 103.45 9.02667C103.228 8.95556 102.953 8.92 102.624 8.92C102.419 8.92 102.197 8.94222 101.957 8.98667C101.726 9.02222 101.49 9.08444 101.25 9.17333C101.019 9.25333 100.788 9.36444 100.557 9.50667C100.326 9.64889 100.117 9.82222 99.9304 10.0267L98.1038 18.2533C98.0949 18.4844 98.086 18.72 98.0771 18.96C98.0771 19.1911 98.0727 19.4222 98.0638 19.6533C98.0638 19.8844 98.0638 20.1156 98.0638 20.3467C98.0638 20.5689 98.0638 20.7867 98.0638 21H93.3438L95.8638 9.72C95.9082 9.52444 95.886 9.37778 95.7971 9.28C95.7082 9.17333 95.5882 9.08444 95.4371 9.01333L93.9704 8.26667L93.9571 7.17333L100.397 6.38667L100.01 8.66667H100.17C100.668 8.15111 101.139 7.73778 101.584 7.42667C102.028 7.10667 102.45 6.86222 102.85 6.69333C103.259 6.52444 103.646 6.41333 104.01 6.36C104.375 6.30667 104.726 6.28 105.064 6.28C105.499 6.28 105.922 6.32889 106.33 6.42667C106.748 6.51556 107.117 6.66667 107.437 6.88C107.766 7.09333 108.042 7.36889 108.264 7.70667C108.486 8.03556 108.637 8.44 108.717 8.92C109.313 8.28889 109.855 7.79556 110.344 7.44C110.842 7.08444 111.299 6.82222 111.717 6.65333C112.135 6.48444 112.522 6.38222 112.877 6.34667C113.233 6.30222 113.57 6.28 113.89 6.28C114.397 6.28 114.868 6.35111 115.304 6.49333C115.748 6.63556 116.126 6.84889 116.437 7.13333C116.757 7.41778 117.006 7.77778 117.184 8.21333C117.362 8.64 117.45 9.13333 117.45 9.69333C117.45 9.91556 117.433 10.1644 117.397 10.44C117.362 10.7067 117.322 10.9467 117.277 11.16L116.317 15.2133C116.255 15.48 116.197 15.7556 116.144 16.04C116.09 16.3244 116.037 16.5956 115.984 16.8533C115.939 17.1022 115.904 17.3244 115.877 17.52C115.859 17.7156 115.85 17.8578 115.85 17.9467C115.85 18.08 115.864 18.2178 115.89 18.36C115.926 18.5022 115.988 18.6356 116.077 18.76C116.175 18.8844 116.304 18.9867 116.464 19.0667C116.633 19.1378 116.85 19.1733 117.117 19.1733C117.197 19.1733 117.286 19.1689 117.384 19.16C117.49 19.1422 117.597 19.12 117.704 19.0933C117.819 19.0667 117.944 19.0311 118.077 18.9867C118.21 18.9422 118.357 18.8889 118.517 18.8267H118.997V20.2533C118.659 20.4489 118.29 20.6089 117.89 20.7333C117.49 20.8578 117.086 20.9556 116.677 21.0267C116.277 21.0978 115.882 21.1467 115.49 21.1733C115.099 21.2 114.744 21.2133 114.424 21.2133ZM134.051 19.8533L136.144 18.9733C136.295 18.9022 136.429 18.8222 136.544 18.7333C136.669 18.6444 136.753 18.5067 136.798 18.32L139.864 4.44C139.909 4.26222 139.891 4.12444 139.811 4.02667C139.731 3.92889 139.624 3.85778 139.491 3.81333L137.478 3L137.731 1.88H146.078L147.558 12.68L147.798 15H148.024L155.451 1.88H163.718L163.464 3L161.384 3.81333C161.242 3.86667 161.104 3.94222 160.971 4.04C160.847 4.13778 160.762 4.27111 160.718 4.44L157.624 18.4C157.58 18.5956 157.598 18.7422 157.678 18.84C157.758 18.9289 157.869 19.0044 158.011 19.0667L160.024 19.8533L159.771 21H150.331L150.571 19.8533L152.611 19.0667C152.771 19.0044 152.913 18.9289 153.038 18.84C153.162 18.7422 153.247 18.5956 153.291 18.4L156.251 5.09333H155.998L154.878 7.16L148.638 18.04L146.744 21H144.518L142.638 7.09333L142.438 5.01333H142.211L139.251 18.32C139.207 18.5156 139.22 18.6578 139.291 18.7467C139.362 18.8356 139.464 18.9111 139.598 18.9733L141.584 19.8533L141.331 21H133.811L134.051 19.8533ZM170.698 21.2133C170.263 21.2133 169.867 21.1511 169.511 21.0267C169.156 20.9022 168.849 20.7333 168.591 20.52C168.334 20.2978 168.134 20.0356 167.991 19.7333C167.849 19.4311 167.778 19.0978 167.778 18.7333C167.778 18.4578 167.8 18.1511 167.845 17.8133C167.898 17.4756 167.969 17.1244 168.058 16.76L169.538 9.98667C169.583 9.79111 169.56 9.64444 169.471 9.54667C169.391 9.44 169.276 9.35111 169.125 9.28L167.325 8.37333V7.28L174.445 6.49333L172.525 15.2133C172.463 15.48 172.405 15.7556 172.351 16.04C172.298 16.3244 172.249 16.5956 172.205 16.8533C172.16 17.1022 172.125 17.3244 172.098 17.52C172.071 17.7156 172.058 17.8578 172.058 17.9467C172.058 18.08 172.071 18.2178 172.098 18.36C172.134 18.5022 172.196 18.6356 172.285 18.76C172.383 18.8844 172.511 18.9867 172.671 19.0667C172.84 19.1378 173.063 19.1733 173.338 19.1733C173.418 19.1733 173.516 19.1689 173.631 19.16C173.747 19.1422 173.871 19.12 174.005 19.0933C174.147 19.0578 174.294 19.0178 174.445 18.9733C174.596 18.92 174.747 18.8667 174.898 18.8133H175.391V20.24C175.045 20.4356 174.663 20.5956 174.245 20.72C173.836 20.8444 173.423 20.9422 173.005 21.0133C172.587 21.0844 172.174 21.1333 171.765 21.16C171.365 21.1956 171.009 21.2133 170.698 21.2133ZM172.618 4.70667C172.289 4.70667 171.965 4.64889 171.645 4.53333C171.334 4.40889 171.049 4.24444 170.791 4.04C170.543 3.82667 170.338 3.58222 170.178 3.30667C170.027 3.02222 169.951 2.71555 169.951 2.38667C169.951 2.04 170.023 1.73333 170.165 1.46667C170.316 1.19111 170.511 0.964444 170.751 0.786667C171 0.6 171.285 0.457777 171.605 0.359999C171.925 0.262221 172.263 0.213333 172.618 0.213333C173.018 0.213333 173.387 0.257777 173.725 0.346667C174.063 0.435555 174.351 0.568889 174.591 0.746667C174.84 0.915555 175.031 1.12889 175.165 1.38667C175.307 1.63556 175.378 1.92444 175.378 2.25333C175.378 2.6 175.298 2.92444 175.138 3.22667C174.987 3.52 174.783 3.77778 174.525 4C174.276 4.21333 173.983 4.38667 173.645 4.52C173.316 4.64444 172.974 4.70667 172.618 4.70667ZM177.136 27.5867C176.958 27.5867 176.745 27.5778 176.496 27.56C176.238 27.5511 175.976 27.5289 175.709 27.4933C175.433 27.4667 175.162 27.4311 174.896 27.3867C174.629 27.3511 174.389 27.3111 174.176 27.2667L174.442 23.8267H175.296C175.518 23.9156 175.793 24.0089 176.122 24.1067C176.442 24.2133 176.771 24.3111 177.109 24.4C177.438 24.4889 177.762 24.56 178.082 24.6133C178.393 24.6667 178.656 24.6933 178.869 24.6933C179.1 24.6933 179.296 24.6622 179.456 24.6C179.625 24.5467 179.78 24.44 179.922 24.28C180.002 24.1911 180.087 24.0311 180.176 23.8C180.265 23.5778 180.353 23.3022 180.442 22.9733C180.531 22.6533 180.62 22.2889 180.709 21.88C180.807 21.4711 180.9 21.04 180.989 20.5867L183.202 9.4H180.789L180.856 7.30667H183.696C183.9 6.60444 184.127 5.96 184.376 5.37333C184.633 4.78667 184.918 4.25333 185.229 3.77333C185.549 3.29333 185.896 2.86222 186.269 2.48C186.651 2.09778 187.065 1.76444 187.509 1.48C187.829 1.25778 188.153 1.06222 188.482 0.893333C188.811 0.724445 189.145 0.586667 189.482 0.48C189.829 0.373333 190.185 0.293333 190.549 0.239999C190.922 0.177778 191.305 0.146667 191.696 0.146667C191.873 0.146667 192.087 0.155556 192.336 0.173334C192.593 0.191111 192.856 0.213333 193.122 0.239999C193.398 0.266666 193.665 0.302222 193.922 0.346667C194.189 0.382222 194.425 0.422222 194.629 0.466667L194.376 3.90667H193.509C193.287 3.80889 193.016 3.71111 192.696 3.61333C192.376 3.50667 192.051 3.41333 191.722 3.33333C191.393 3.24444 191.073 3.17333 190.762 3.12C190.451 3.06667 190.189 3.04 189.976 3.04C189.745 3.04 189.545 3.07111 189.376 3.13333C189.207 3.18667 189.051 3.29333 188.909 3.45333C188.838 3.55111 188.758 3.71556 188.669 3.94667C188.58 4.17778 188.487 4.46667 188.389 4.81333C188.3 5.15111 188.207 5.53333 188.109 5.96C188.02 6.37778 187.931 6.82667 187.842 7.30667H191.402L191.309 9.4H187.376L185.176 20.4933C184.98 21.5511 184.638 22.5022 184.149 23.3467C183.66 24.2 183.06 24.9333 182.349 25.5467C181.958 25.8844 181.558 26.1778 181.149 26.4267C180.749 26.6844 180.331 26.8978 179.896 27.0667C179.46 27.2444 179.011 27.3733 178.549 27.4533C178.087 27.5422 177.616 27.5867 177.136 27.5867ZM197.879 21.2667C197.292 21.2667 196.763 21.1644 196.292 20.96C195.821 20.7556 195.421 20.4844 195.092 20.1467C194.772 19.8 194.523 19.4 194.345 18.9467C194.176 18.4933 194.092 18.0178 194.092 17.52C194.092 16.8089 194.212 16.1778 194.452 15.6267C194.692 15.0756 195.008 14.5956 195.399 14.1867C195.799 13.7778 196.256 13.4356 196.772 13.16C197.288 12.8756 197.825 12.6489 198.385 12.48C198.954 12.3022 199.523 12.1778 200.092 12.1067C200.67 12.0267 201.208 11.9867 201.705 11.9867C201.821 11.9867 201.999 11.9956 202.239 12.0133C202.479 12.0311 202.728 12.0533 202.985 12.08C203.243 12.1067 203.488 12.1333 203.719 12.16C203.959 12.1778 204.132 12.1911 204.239 12.2C204.248 12.1644 204.261 12.0667 204.279 11.9067C204.305 11.7378 204.332 11.5511 204.359 11.3467C204.394 11.1333 204.421 10.9244 204.439 10.72C204.465 10.5156 204.479 10.3556 204.479 10.24C204.479 9.53778 204.283 9.02667 203.892 8.70667C203.501 8.38667 202.959 8.22667 202.265 8.22667C201.901 8.22667 201.492 8.32 201.039 8.50667C200.585 8.69333 200.128 8.92 199.665 9.18667C199.212 9.44444 198.776 9.71556 198.359 10C197.941 10.2844 197.594 10.5244 197.319 10.72H196.412L196.559 7.37333C197.039 7.23111 197.519 7.09333 197.999 6.96C198.479 6.82667 198.972 6.71111 199.479 6.61333C199.994 6.50667 200.528 6.42667 201.079 6.37333C201.639 6.31111 202.239 6.28 202.879 6.28C203.51 6.28 204.163 6.33778 204.839 6.45333C205.523 6.56889 206.15 6.76444 206.719 7.04C207.288 7.31556 207.754 7.68444 208.119 8.14667C208.483 8.6 208.665 9.17333 208.665 9.86667C208.665 10.0267 208.656 10.2 208.639 10.3867C208.63 10.5733 208.612 10.7644 208.585 10.96C208.568 11.1556 208.541 11.3467 208.505 11.5333C208.479 11.72 208.448 11.8889 208.412 12.04L207.679 15.2133C207.625 15.4533 207.572 15.7111 207.519 15.9867C207.465 16.2533 207.412 16.5156 207.359 16.7733C207.314 17.0222 207.274 17.2533 207.239 17.4667C207.212 17.6711 207.199 17.8311 207.199 17.9467C207.199 18.0889 207.216 18.2356 207.252 18.3867C207.296 18.5289 207.368 18.6622 207.465 18.7867C207.563 18.9022 207.692 18.9956 207.852 19.0667C208.012 19.1378 208.221 19.1733 208.479 19.1733C208.568 19.1733 208.661 19.1689 208.759 19.16C208.865 19.1422 208.972 19.12 209.079 19.0933C209.194 19.0578 209.319 19.0178 209.452 18.9733C209.585 18.9289 209.728 18.88 209.879 18.8267H210.359V20.2533C209.994 20.4578 209.612 20.6222 209.212 20.7467C208.812 20.8711 208.412 20.9689 208.012 21.04C207.621 21.1111 207.239 21.1556 206.865 21.1733C206.492 21.2 206.163 21.2133 205.879 21.2133C205.416 21.2133 205.016 21.1511 204.679 21.0267C204.35 20.9022 204.065 20.7378 203.825 20.5333C203.594 20.32 203.412 20.0711 203.279 19.7867C203.145 19.5022 203.056 19.1911 203.012 18.8533H202.852C202.399 19.36 201.954 19.7733 201.519 20.0933C201.092 20.4044 200.674 20.6489 200.265 20.8267C199.856 20.9956 199.452 21.1111 199.052 21.1733C198.652 21.2356 198.261 21.2667 197.879 21.2667ZM200.252 18.8267C200.732 18.8267 201.221 18.7156 201.719 18.4933C202.216 18.2711 202.661 17.9289 203.052 17.4667L203.892 13.7733C203.136 13.7733 202.434 13.8133 201.785 13.8933C201.136 13.9644 200.572 14.1156 200.092 14.3467C199.612 14.5778 199.23 14.9067 198.945 15.3333C198.67 15.7511 198.519 16.3022 198.492 16.9867C198.483 17.3156 198.528 17.5956 198.625 17.8267C198.723 18.0578 198.852 18.2489 199.012 18.4C199.181 18.5422 199.372 18.6489 199.585 18.72C199.808 18.7911 200.03 18.8267 200.252 18.8267ZM216.242 9.73333C216.224 9.63556 216.202 9.55111 216.175 9.48C216.149 9.40889 216.113 9.34667 216.069 9.29333C216.033 9.24 215.989 9.19111 215.935 9.14667C215.882 9.10222 215.815 9.06667 215.735 9.04L213.975 8.26667L213.962 7.17333L219.789 6.38667L221.282 14.9867L221.495 16.6933H221.682L224.389 12.1867C224.744 11.6 225.02 11.0356 225.215 10.4933C225.411 9.95111 225.553 9.45778 225.642 9.01333C225.731 8.56 225.784 8.16444 225.802 7.82667C225.829 7.48 225.842 7.20889 225.842 7.01333V6.64H230.522V7.45333C230.309 7.70222 230.073 7.96444 229.815 8.24C229.567 8.51556 229.318 8.8 229.069 9.09333C228.82 9.37778 228.571 9.67556 228.322 9.98667C228.082 10.2889 227.864 10.5956 227.669 10.9067L223.109 18.2L221.069 21.1333H218.269L216.242 9.73333ZM239.342 21.3067C238.942 21.3067 238.515 21.2578 238.062 21.16C237.609 21.0711 237.155 20.9289 236.702 20.7333C236.258 20.5289 235.831 20.2711 235.422 19.96C235.013 19.6489 234.649 19.2711 234.329 18.8267C234.018 18.3733 233.769 17.8533 233.582 17.2667C233.395 16.6711 233.302 16 233.302 15.2533C233.302 14.4622 233.4 13.6889 233.595 12.9333C233.791 12.1778 234.075 11.4667 234.449 10.8C234.822 10.1333 235.275 9.52 235.809 8.96C236.342 8.4 236.942 7.92 237.609 7.52C238.275 7.12 239.009 6.80889 239.809 6.58667C240.609 6.36444 241.453 6.25333 242.342 6.25333C242.893 6.25333 243.458 6.31556 244.035 6.44C244.613 6.55556 245.142 6.74667 245.622 7.01333C246.102 7.28 246.493 7.62667 246.795 8.05333C247.107 8.48 247.262 9.00889 247.262 9.64C247.262 10.2267 247.155 10.7556 246.942 11.2267C246.729 11.6978 246.435 12.1156 246.062 12.48C245.689 12.8356 245.253 13.1378 244.755 13.3867C244.258 13.6356 243.724 13.84 243.155 14C242.595 14.1511 242.009 14.2622 241.395 14.3333C240.791 14.4044 240.2 14.44 239.622 14.44C239.222 14.44 238.853 14.4311 238.515 14.4133C238.178 14.3956 237.875 14.3689 237.609 14.3333C237.609 14.4222 237.604 14.5111 237.595 14.6C237.587 14.68 237.582 14.7689 237.582 14.8667C237.564 15.4711 237.627 16.0133 237.769 16.4933C237.92 16.9733 238.142 17.3822 238.435 17.72C238.738 18.0578 239.115 18.3156 239.569 18.4933C240.022 18.6711 240.551 18.76 241.155 18.76C241.698 18.76 242.204 18.7156 242.675 18.6267C243.147 18.5289 243.578 18.4089 243.969 18.2667C244.369 18.1156 244.733 17.9556 245.062 17.7867C245.391 17.6178 245.68 17.4578 245.929 17.3067H246.595L246.529 19.04C246.102 19.3422 245.631 19.6311 245.115 19.9067C244.6 20.1822 244.04 20.4267 243.435 20.64C242.831 20.8444 242.187 21.0044 241.502 21.12C240.818 21.2444 240.098 21.3067 239.342 21.3067ZM239.262 12.8933C239.795 12.8933 240.293 12.84 240.755 12.7333C241.218 12.6178 241.613 12.4356 241.942 12.1867C242.28 11.9289 242.547 11.5956 242.742 11.1867C242.938 10.7778 243.035 10.2711 243.035 9.66667C243.035 9.16 242.889 8.76889 242.595 8.49333C242.311 8.21778 241.942 8.08 241.489 8.08C241.258 8.08 241.031 8.12444 240.809 8.21333C240.587 8.29333 240.373 8.40444 240.169 8.54667C239.893 8.75111 239.631 9.00444 239.382 9.30667C239.142 9.6 238.92 9.92889 238.715 10.2933C238.52 10.6578 238.347 11.0578 238.195 11.4933C238.053 11.9289 237.938 12.3778 237.849 12.84C238.062 12.8578 238.293 12.8711 238.542 12.88C238.8 12.8889 239.04 12.8933 239.262 12.8933ZM255.835 21.2133C255.399 21.2133 255.004 21.1511 254.648 21.0267C254.293 20.9022 253.986 20.7333 253.728 20.52C253.47 20.2978 253.27 20.0356 253.128 19.7333C252.986 19.4311 252.915 19.0978 252.915 18.7333C252.915 18.4578 252.937 18.1511 252.982 17.8133C253.035 17.4756 253.106 17.1244 253.195 16.76L254.675 9.98667C254.719 9.79111 254.697 9.64444 254.608 9.54667C254.528 9.44 254.413 9.35111 254.262 9.28L252.462 8.37333V7.28L259.582 6.49333L257.662 15.2133C257.599 15.48 257.542 15.7556 257.488 16.04C257.435 16.3244 257.386 16.5956 257.342 16.8533C257.297 17.1022 257.262 17.3244 257.235 17.52C257.208 17.7156 257.195 17.8578 257.195 17.9467C257.195 18.08 257.208 18.2178 257.235 18.36C257.27 18.5022 257.333 18.6356 257.422 18.76C257.519 18.8844 257.648 18.9867 257.808 19.0667C257.977 19.1378 258.199 19.1733 258.475 19.1733C258.555 19.1733 258.653 19.1689 258.768 19.16C258.884 19.1422 259.008 19.12 259.142 19.0933C259.284 19.0578 259.43 19.0178 259.582 18.9733C259.733 18.92 259.884 18.8667 260.035 18.8133H260.528V20.24C260.182 20.4356 259.799 20.5956 259.382 20.72C258.973 20.8444 258.559 20.9422 258.142 21.0133C257.724 21.0844 257.31 21.1333 256.902 21.16C256.502 21.1956 256.146 21.2133 255.835 21.2133ZM257.755 4.70667C257.426 4.70667 257.102 4.64889 256.782 4.53333C256.47 4.40889 256.186 4.24444 255.928 4.04C255.679 3.82667 255.475 3.58222 255.315 3.30667C255.164 3.02222 255.088 2.71555 255.088 2.38667C255.088 2.04 255.159 1.73333 255.302 1.46667C255.453 1.19111 255.648 0.964444 255.888 0.786667C256.137 0.6 256.422 0.457777 256.742 0.359999C257.062 0.262221 257.399 0.213333 257.755 0.213333C258.155 0.213333 258.524 0.257777 258.862 0.346667C259.199 0.435555 259.488 0.568889 259.728 0.746667C259.977 0.915555 260.168 1.12889 260.302 1.38667C260.444 1.63556 260.515 1.92444 260.515 2.25333C260.515 2.6 260.435 2.92444 260.275 3.22667C260.124 3.52 259.919 3.77778 259.662 4C259.413 4.21333 259.119 4.38667 258.782 4.52C258.453 4.64444 258.11 4.70667 257.755 4.70667ZM288.52 0.440001H291.4L276.16 26.72H273.334L288.52 0.440001Z" fill="#43309C"/>
</svg>
