<svg width="29" height="450" viewBox="0 0 29 450" fill="none" xmlns="http://www.w3.org/2000/svg">
<path d="M11.0879 9.8623L11.2793 11.1748L11.5596 9.99219L13.5283 3.04688H14.6357L16.5566 9.99219L16.8301 11.1953L17.042 9.85547L18.5869 3.04688H19.9062L17.4932 13H16.2969L14.2461 5.74707L14.0889 4.98828L13.9316 5.74707L11.8057 13H10.6094L8.20312 3.04688H9.51562L11.0879 9.8623Z" fill="#B8B7BC"/>
<path d="M16.8027 41.3994H12.4893V44.9268H17.5V46H11.1768V36.0469H17.4316V37.127H12.4893V40.3262H16.8027V41.3994Z" fill="#B8B7BC"/>
<path d="M13.708 75.9268H18.4248V77H12.3887V67.0469H13.708V75.9268Z" fill="#B8B7BC"/>
<path d="M17.917 106.842C17.7939 107.895 17.4043 108.708 16.748 109.282C16.0964 109.852 15.2282 110.137 14.1436 110.137C12.9678 110.137 12.0244 109.715 11.3135 108.872C10.6071 108.029 10.2539 106.901 10.2539 105.488V104.531C10.2539 103.606 10.418 102.793 10.7461 102.091C11.0788 101.389 11.5482 100.851 12.1543 100.478C12.7604 100.099 13.4622 99.9102 14.2598 99.9102C15.3171 99.9102 16.1647 100.206 16.8027 100.799C17.4408 101.387 17.8122 102.202 17.917 103.246H16.5977C16.4837 102.453 16.2354 101.879 15.8525 101.523C15.4743 101.168 14.9434 100.99 14.2598 100.99C13.4212 100.99 12.7627 101.3 12.2842 101.92C11.8102 102.54 11.5732 103.422 11.5732 104.565V105.529C11.5732 106.609 11.7988 107.468 12.25 108.106C12.7012 108.744 13.3324 109.063 14.1436 109.063C14.8727 109.063 15.431 108.899 15.8184 108.571C16.2103 108.239 16.4701 107.662 16.5977 106.842H17.917Z" fill="#B8B7BC"/>
<path d="M17.1377 141.755C17.1377 143.236 16.8848 144.337 16.3789 145.057C15.873 145.777 15.0824 146.137 14.0068 146.137C12.945 146.137 12.1589 145.786 11.6484 145.084C11.138 144.378 10.8737 143.325 10.8555 141.926V140.237C10.8555 138.774 11.1084 137.688 11.6143 136.977C12.1201 136.266 12.9131 135.91 13.9932 135.91C15.0641 135.91 15.8525 136.254 16.3584 136.942C16.8643 137.626 17.124 138.683 17.1377 140.114V141.755ZM15.873 140.025C15.873 138.954 15.7227 138.175 15.4219 137.688C15.1211 137.195 14.6449 136.949 13.9932 136.949C13.346 136.949 12.8743 137.193 12.5781 137.681C12.2819 138.168 12.1292 138.918 12.1201 139.93V141.953C12.1201 143.029 12.2751 143.824 12.585 144.339C12.8994 144.849 13.3734 145.104 14.0068 145.104C14.6312 145.104 15.0938 144.863 15.3945 144.38C15.6999 143.897 15.8594 143.136 15.873 142.097V140.025Z" fill="#B8B7BC"/>
<path d="M10.7393 168.047L13.9932 176.168L17.2471 168.047H18.9492V178H17.6367V174.124L17.7598 169.94L14.4922 178H13.4873L10.2266 169.961L10.3564 174.124V178H9.04395V168.047H10.7393Z" fill="#B8B7BC"/>
<path d="M16.8027 204.399H12.4893V207.927H17.5V209H11.1768V199.047H17.4316V200.127H12.4893V203.326H16.8027V204.399Z" fill="#B8B7BC"/>
<line x1="13.9347" y1="231.995" x2="14.9314" y2="449.996" stroke="#B8B7BC" stroke-width="2"/>
</svg>
